<svg width="20" height="21" viewBox="0 0 20 21" fill="none" xmlns="http://www.w3.org/2000/svg">
<path fill-rule="evenodd" clip-rule="evenodd" d="M0 6.59961C0 3.77118 0 2.35697 0.87868 1.47829C1.75736 0.599609 3.17157 0.599609 6 0.599609H13.8987C14.7162 0.599609 15.125 0.599609 15.4925 0.75185C15.86 0.904091 16.1491 1.19312 16.7271 1.77118L18.8284 3.87248C19.4065 4.45054 19.6955 4.73957 19.8478 5.10711C20 5.47466 20 5.88341 20 6.70091V14.5996C20 17.428 20 18.8423 19.1213 19.7209C18.407 20.4353 17.3387 20.5689 15.4443 20.5939V16.9325L15.4443 16.8709C15.4444 16.2167 15.4444 15.629 15.3805 15.1533C15.3106 14.634 15.1485 14.1011 14.7121 13.6647C14.2756 13.2283 13.7428 13.0661 13.2234 12.9963C12.7477 12.9324 12.16 12.9324 11.5059 12.9325L11.4443 12.9325H7.44429L7.38268 12.9325C6.72856 12.9324 6.14084 12.9324 5.66513 12.9963C5.14577 13.0661 4.61296 13.2283 4.17652 13.6647C3.74008 14.1011 3.57795 14.634 3.50812 15.1533C3.44417 15.629 3.44422 16.2167 3.44429 16.8709L3.44429 16.9325V20.558C2.21857 20.4846 1.43953 20.2818 0.87868 19.7209C0 18.8423 0 17.428 0 14.5996V6.59961ZM13.4443 20.5991H14.6592C14.4484 20.5996 14.2288 20.5996 14 20.5996H6C5.77116 20.5996 5.55157 20.5996 5.34077 20.5991H5.44429V16.9325C5.44429 16.1971 5.44641 15.7462 5.49029 15.4198C5.52885 15.133 5.58371 15.0851 5.59021 15.0794L5.59074 15.0789L5.59121 15.0784C5.59689 15.0719 5.64478 15.017 5.93163 14.9785C6.25798 14.9346 6.70891 14.9325 7.44429 14.9325H11.4443C12.1797 14.9325 12.6306 14.9346 12.9569 14.9785C13.2438 15.017 13.2917 15.0719 13.2974 15.0784L13.2978 15.0789L13.2984 15.0794C13.3049 15.0851 13.3597 15.133 13.3983 15.4198C13.4422 15.7462 13.4443 16.1971 13.4443 16.9325V20.5991ZM5.55571 6.5439C5.00343 6.5439 4.55571 6.99161 4.55571 7.5439C4.55571 8.09618 5.00343 8.5439 5.55571 8.5439H12.5002C13.0524 8.5439 13.5002 8.09618 13.5002 7.5439C13.5002 6.99161 13.0524 6.5439 12.5002 6.5439H5.55571Z" fill="white"/>
</svg>
