<?xml version="1.0" encoding="UTF-8"?>
<svg width="5.3907mm" height="38.1mm" version="1.1" viewBox="0 0 5.3907 38.1" xml:space="preserve" xmlns="http://www.w3.org/2000/svg"><g transform="translate(-93.675 -78.756)"><g transform="matrix(.35278 0 0 -.35278 93.675 116.86)" fill="#0075bf"><path d="m15.28 79.454v3.435c-1.512-1.1489-2.9848-2.351-4.4719-3.5311-3.299-2.6158-6.565-5.2679-9.822-7.9359-0.3314-0.2704-0.6597-0.544-0.9868-0.8192v-1.8865l1.4789-0.1034c4.6848 3.5022 9.2709 7.1461 13.802 10.841"/><path d="m0.4929 77.429c0.8502 0.4839 1.6362 1.078 2.433 1.6441 1.6753 1.19 3.2652 2.505 4.8552 3.8058 2.5778 2.1101 5.1001 4.3002 7.4991 6.6141v3.8781c-0.0012-0.0012-0.0032-2e-3 -4e-3 -0.0032-1.474-1.311-2.9531-2.6149-4.4192-3.9339-2.931-2.6351-5.9721-5.1321-8.9728-7.685-0.6256-0.5323-1.2671-1.061-1.8845-1.6084v-3.0072c0.1658 0.1029 0.3303 0.2029 0.4932 0.2956"/><path d="m3.333 88.017c1.533 1.1322 3.035 2.295 4.5039 3.5102 2.5509 2.109 5.0341 4.2888 7.443 6.5568v3.858c-0.1211-0.097-0.243-0.1919-0.366-0.2838-0.7809-0.5791-1.4748-1.3022-2.1988-1.9511-0.6891-0.6179-1.383-1.2311-2.0812-1.8399-2.7879-2.4322-5.603-4.83-8.4138-7.2352-0.7141-0.61-1.4873-1.222-2.2204-1.8765v-2.939c1.1894 0.5967 2.2986 1.4372 3.3333 2.2005"/><path d="m-3e-4 95.06c0.4119 0.2138 0.8113 0.4459 1.2115 0.6798 0.8071 0.4731 1.6141 0.9462 2.3831 1.478 1.5659 1.0862 3.113 2.2002 4.6381 3.342 2.412 1.8071 4.7968 3.7151 7.0478 5.7422v1.6982h-2.4965c-1.6929-1.4289-3.3886-2.8545-5.1273-4.2284-1.6401-1.296-3.2732-2.5988-4.947-3.8509-0.8932-0.669-1.7672-1.355-2.6343-2.0571l-0.0754-0.061z"/><path d="m-3e-4 102.61c0.1707 0.0853 0.3405 0.174 0.5083 0.2639 0.3809 0.2041 0.7358 0.4521 1.097 0.6911 0.7849 0.517 1.5658 1.0349 2.319 1.597l3.8086 2.8392h-4.9246l-0.5871-0.4541c-0.7429-0.5752-1.455-1.1821-2.1639-1.8l-0.0573-0.0499z"/><path d="m-3e-4 107.9 0.1364 0.0952h-0.1364z"/><path d="m15.28 73.335c-0.242-0.165-0.485-0.328-0.7299-0.4882-1.2651-0.826-2.5461-1.6248-3.8131-2.448-0.6038-0.3929-1.23-0.7588-1.8139-1.1809-0.728-0.5269-1.4381-0.9419-1.7861-1.8059-0.021-0.0522-0.0341-0.1072-0.0409-0.1642l3.5949-0.2508c0.5222 0.2659 1.029 0.5629 1.5381 0.8489 1.0381 0.5831 2.0489 1.207 3.0509 1.8471z"/><path d="m6.1645 26.963c-0.0079 0.7381-0.07 1.478-0.104 2.211-0.0562 1.2351-0.076 2.469-0.1009 3.7049-0.0511 2.4701-0.1012 4.9402-0.1511 7.41-0.1009 4.976-0.2129 9.9522-0.345 14.928-0.036 1.3819-0.1001 2.7601-0.1721 4.1409-0.074 1.4221-0.0399 2.9701-0.5028 4.3291-0.0272 0.081-0.0632 0.1561-0.1041 0.225l-2.0721-0.2891c-0.3209-1.1968-0.2679-2.4919-0.265-3.7199 0.0039-1.2351-0.0048-2.471 0.03-3.7049 0.072-2.4701 0.1412-4.9402 0.214-7.41 0.148-4.9771 0.347-9.9522 0.5202-14.928 0.0487-1.3799 0.1188-2.761 0.1329-4.1409 9e-4 -0.184 9e-4 -0.3691-0.0011-0.5561z"/><path d="m8.7817 24.991 2.933-2.2102c0.925 10.734 1.1512 21.515 0.781 32.281-0.1049 3.0662-0.3589 6.1021-0.7628 9.142-0.032 0.2381-0.104 0.464-0.2152 0.6602l-2.3669-0.33c-0.0289-0.106-0.0471-0.216-0.0479-0.3302-0.072-5.4459 0.1638-10.885 0.1919-16.331 0.0289-5.4479-0.053-10.893-0.2302-16.339-0.072-2.1821-0.1698-4.3631-0.2829-6.5429"/><path d="m7.0688 0c-0.3728 3.3806-0.8167 6.7564-1.2972 10.12-0.498 3.4849-0.873 7.022-1.563 10.483l-2.541 1.3779c0.0391-4.1 0.6151-8.204 1.014-12.279 0.3175-3.2377 0.6749-6.4752 1.0936-9.7024z"/><path d="m8.5136 16.844c0.055-1.0832 0.0989-2.166 0.1871-3.2471 0.18-2.2011 0.3588-4.4019 0.5388-6.603 0.18-2.2009 0.3592-4.402 0.5392-6.6031l0.0329-0.3903h3.5161l-0.038 0.3903c-0.2251 2.2371-0.4502 4.4742-0.6752 6.7111-0.2248 2.2371-0.4499 4.4739-0.675 6.711-0.0929 0.9309-0.2239 1.8581-0.3489 2.785l-3.157 1.713c2e-3 -0.5321 0.059-1.0599 0.08-1.4669"/><path d="m2.2399 67.736-0.6499 0.1312c0.036-0.5511 0.07-1.1021 0.1-1.6532 0.0261-0.4719 0.0479-0.9439 0.0689-1.417l0.6602 0.0632c-0.0252 0.4879-0.0522 0.9748-0.0831 1.463-0.0292 0.4708-0.062 0.9419-0.0961 1.4128"/><path d="m3.3528 67.511c-0.0068-0.853 0.0063-1.7059 0.0332-2.5589l0.699 0.0669c-0.032 0.7861-0.0541 1.5721-0.0731 2.359z"/><path d="m5.8476 67.007-0.7019 0.142c-0.0051-0.5891-0.0079-1.177-0.0122-1.7649-8e-4 -0.089-8e-4 -0.1771-0.0019-0.2662l0.7211 0.0692v0.197c-2e-3 0.5409-0.0031 1.082-0.0051 1.6229"/><path d="m7.1393 66.746c0.0151-0.4782 0.0281-0.9562 0.0392-1.4332l0.697 0.066c-0.0142 0.4102-0.0309 0.8192-0.051 1.2291z"/><path d="m8.6706 66.437c4e-3 -0.3271 0.0099-0.6539 0.0162-0.9811l0.7959 0.076c-0.011 0.2492-0.0229 0.4992-0.0351 0.7481z"/><path d="m3.5785 28.085-3.5788 2.6657v-7.2408l0.7376-0.3921c0.6792 1.0171 1.241 2.1382 1.853 3.193 0.3402 0.587 0.6701 1.1781 0.9882 1.7742"/><path d="m9.9609 23.33-4.3248 3.223c-0.3671-0.654-0.72-1.315-1.04-1.9911-0.4419-0.9309-0.8651-1.87-1.2719-2.8168l4.5368-2.4111c0.4431 0.8869 0.902 1.7651 1.3771 2.6339 0.2461 0.451 0.485 0.9071 0.7228 1.3621"/><path d="m13.341 20.812-1.5639 1.165c-0.4051-0.7251-0.7931-1.4539-1.1461-2.209-0.2301-0.493-0.4909-1.0021-0.7151-1.5251l2.084-1.1069z"/></g></g></svg>
