<?xml version="1.0" encoding="UTF-8"?>
<svg width="5.8533mm" height="38.026mm" version="1.1" viewBox="0 0 5.8533 38.026" xml:space="preserve" xmlns="http://www.w3.org/2000/svg"><g transform="translate(-155.55 -78.83)"><g transform="matrix(.35278 0 0 -.35278 93.675 116.86)"><path d="m15.28 79.454v3.435c-1.512-1.1489-2.9848-2.351-4.4719-3.5311-3.299-2.6158-6.565-5.2679-9.822-7.9359-0.3314-0.2704-0.6597-0.544-0.9868-0.8192v-1.8865l1.4789-0.1034c4.6848 3.5022 9.2709 7.1461 13.802 10.841" fill="#0075bf"/><path d="m0.4929 77.429c0.8502 0.4839 1.6362 1.078 2.433 1.6441 1.6753 1.19 3.2652 2.505 4.8552 3.8058 2.5778 2.1101 5.1001 4.3002 7.4991 6.6141v3.8781c-0.0012-0.0012-0.0032-2e-3 -4e-3 -0.0032-1.474-1.311-2.9531-2.6149-4.4192-3.9339-2.931-2.6351-5.9721-5.1321-8.9728-7.685-0.6256-0.5323-1.2671-1.061-1.8845-1.6084v-3.0072c0.1658 0.1029 0.3303 0.2029 0.4932 0.2956" fill="#0075bf"/><path d="m3.333 88.017c1.533 1.1322 3.035 2.295 4.5039 3.5102 2.5509 2.109 5.0341 4.2888 7.443 6.5568v3.858c-0.1211-0.097-0.243-0.1919-0.366-0.2838-0.7809-0.5791-1.4748-1.3022-2.1988-1.9511-0.6891-0.6179-1.383-1.2311-2.0812-1.8399-2.7879-2.4322-5.603-4.83-8.4138-7.2352-0.7141-0.61-1.4873-1.222-2.2204-1.8765v-2.939c1.1894 0.5967 2.2986 1.4372 3.3333 2.2005" fill="#0075bf"/><path d="m-3e-4 95.06c0.4119 0.2138 0.8113 0.4459 1.2115 0.6798 0.8071 0.4731 1.6141 0.9462 2.3831 1.478 1.5659 1.0862 3.113 2.2002 4.6381 3.342 2.412 1.8071 4.7968 3.7151 7.0478 5.7422v1.6982h-2.4965c-1.6929-1.4289-3.3886-2.8545-5.1273-4.2284-1.6401-1.296-3.2732-2.5988-4.947-3.8509-0.8932-0.669-1.7672-1.355-2.6343-2.0571l-0.0754-0.061z" fill="#0075bf"/><path d="m-3e-4 102.61c0.1707 0.0853 0.3405 0.174 0.5083 0.2639 0.3809 0.2041 0.7358 0.4521 1.097 0.6911 0.7849 0.517 1.5658 1.0349 2.319 1.597l3.8086 2.8392h-4.9246l-0.5871-0.4541c-0.7429-0.5752-1.455-1.1821-2.1639-1.8l-0.0573-0.0499z" fill="#0075bf"/><path d="m-3e-4 107.9 0.1364 0.0952h-0.1364z" fill="#0075bf"/><path d="m15.28 73.335c-0.242-0.165-0.485-0.328-0.7299-0.4882-1.2651-0.826-2.5461-1.6248-3.8131-2.448-0.6038-0.3929-1.23-0.7588-1.8139-1.1809-0.728-0.5269-1.4381-0.9419-1.7861-1.8059-0.021-0.0522-0.0341-0.1072-0.0409-0.1642l3.5949-0.2508c0.5222 0.2659 1.029 0.5629 1.5381 0.8489 1.0381 0.5831 2.0489 1.207 3.0509 1.8471z" fill="#0075bf"/><path d="m6.1645 26.963c-0.0079 0.7381-0.07 1.478-0.104 2.211-0.0562 1.2351-0.076 2.469-0.1009 3.7049-0.0511 2.4701-0.1012 4.9402-0.1511 7.41-0.1009 4.976-0.2129 9.9522-0.345 14.928-0.036 1.3819-0.1001 2.7601-0.1721 4.1409-0.074 1.4221-0.0399 2.9701-0.5028 4.3291-0.0272 0.081-0.0632 0.1561-0.1041 0.225l-2.0721-0.2891c-0.3209-1.1968-0.2679-2.4919-0.265-3.7199 0.0039-1.2351-0.0048-2.471 0.03-3.7049 0.072-2.4701 0.1412-4.9402 0.214-7.41 0.148-4.9771 0.347-9.9522 0.5202-14.928 0.0487-1.3799 0.1188-2.761 0.1329-4.1409 9e-4 -0.184 9e-4 -0.3691-0.0011-0.5561z" fill="#0075bf"/><path d="m8.7817 24.991 2.933-2.2102c0.925 10.734 1.1512 21.515 0.781 32.281-0.1049 3.0662-0.3589 6.1021-0.7628 9.142-0.032 0.2381-0.104 0.464-0.2152 0.6602l-2.3669-0.33c-0.0289-0.106-0.0471-0.216-0.0479-0.3302-0.072-5.4459 0.1638-10.885 0.1919-16.331 0.0289-5.4479-0.053-10.893-0.2302-16.339-0.072-2.1821-0.1698-4.3631-0.2829-6.5429" fill="#0075bf"/><path d="m7.0688 0c-0.3728 3.3806-0.8167 6.7564-1.2972 10.12-0.498 3.4849-0.873 7.022-1.563 10.483l-2.541 1.3779c0.0391-4.1 0.6151-8.204 1.014-12.279 0.3175-3.2377 0.6749-6.4752 1.0936-9.7024z" fill="#0075bf"/><path d="m8.5136 16.844c0.055-1.0832 0.0989-2.166 0.1871-3.2471 0.18-2.2011 0.3588-4.4019 0.5388-6.603 0.18-2.2009 0.3592-4.402 0.5392-6.6031l0.0329-0.3903h3.5161l-0.038 0.3903c-0.2251 2.2371-0.4502 4.4742-0.6752 6.7111-0.2248 2.2371-0.4499 4.4739-0.675 6.711-0.0929 0.9309-0.2239 1.8581-0.3489 2.785l-3.157 1.713c2e-3 -0.5321 0.059-1.0599 0.08-1.4669" fill="#0075bf"/><path d="m2.2399 67.736-0.6499 0.1312c0.036-0.5511 0.07-1.1021 0.1-1.6532 0.0261-0.4719 0.0479-0.9439 0.0689-1.417l0.6602 0.0632c-0.0252 0.4879-0.0522 0.9748-0.0831 1.463-0.0292 0.4708-0.062 0.9419-0.0961 1.4128" fill="#0075bf"/><path d="m3.3528 67.511c-0.0068-0.853 0.0063-1.7059 0.0332-2.5589l0.699 0.0669c-0.032 0.7861-0.0541 1.5721-0.0731 2.359z" fill="#0075bf"/><path d="m5.8476 67.007-0.7019 0.142c-0.0051-0.5891-0.0079-1.177-0.0122-1.7649-8e-4 -0.089-8e-4 -0.1771-0.0019-0.2662l0.7211 0.0692v0.197c-2e-3 0.5409-0.0031 1.082-0.0051 1.6229" fill="#0075bf"/><path d="m7.1393 66.746c0.0151-0.4782 0.0281-0.9562 0.0392-1.4332l0.697 0.066c-0.0142 0.4102-0.0309 0.8192-0.051 1.2291z" fill="#0075bf"/><path d="m8.6706 66.437c4e-3 -0.3271 0.0099-0.6539 0.0162-0.9811l0.7959 0.076c-0.011 0.2492-0.0229 0.4992-0.0351 0.7481z" fill="#0075bf"/><path d="m3.5785 28.085-3.5788 2.6657v-7.2408l0.7376-0.3921c0.6792 1.0171 1.241 2.1382 1.853 3.193 0.3402 0.587 0.6701 1.1781 0.9882 1.7742" fill="#0075bf"/><path d="m9.9609 23.33-4.3248 3.223c-0.3671-0.654-0.72-1.315-1.04-1.9911-0.4419-0.9309-0.8651-1.87-1.2719-2.8168l4.5368-2.4111c0.4431 0.8869 0.902 1.7651 1.3771 2.6339 0.2461 0.451 0.485 0.9071 0.7228 1.3621" fill="#0075bf"/><path d="m13.341 20.812-1.5639 1.165c-0.4051-0.7251-0.7931-1.4539-1.1461-2.209-0.2301-0.493-0.4909-1.0021-0.7151-1.5251l2.084-1.1069z" fill="#0075bf"/><path d="m192 48.332c-3.382 1.5004-6.7454 3.0444-10.094 4.6162-1.493 0.7002-2.9781 1.4171-4.477 2.1042-0.4771 0.218-0.9562 0.4538-1.4392 0.6868v-1.724l16.01-8.5944z" fill="#0075bf"/><path d="m192 54.997c-2.8114 1.2311-5.6254 2.4568-8.4575 3.6389-1.495 0.6242-2.9888 1.2472-4.4818 1.8762-0.999 0.4198-2.024 0.889-3.0711 1.245v-2.321c0.4961-0.265 0.9989-0.5162 1.4942-0.7622 1.2948-0.6429 2.592-1.2838 3.8888-1.9219 2.628-1.294 5.286-2.535 7.954-3.744 0.8907-0.4034 1.7819-0.8059 2.6734-1.2073z" fill="#0075bf"/><path d="m192 60.596c-3.1437 1.3444-6.2969 2.6665-9.4567 3.9741-1.747 0.7229-3.5209 1.3808-5.29 2.0498-0.421 0.159-0.8422 0.3172-1.264 0.475v-2.5029c1.4468-0.673 2.886-1.3649 4.3379-2.0271 3.0022-1.3689 6.0369-2.6668 9.0462-4.0209l2.6266-1.1812z" fill="#0075bf"/><path d="m192 67.2c-2.9628 1.4531-5.9205 2.9171-8.8745 4.3869-1.6239 0.809-3.2439 1.62-4.886 2.3919-0.7461 0.3509-1.4981 0.6871-2.2502 1.023v-2.5931c1.5202-0.9128 3.0473-1.8128 4.6143-2.655 2.88-1.548 5.76-3.105 8.6768-4.5819 0.9057-0.4589 1.8122-0.9161 2.7196-1.3711z" fill="#0075bf"/><path d="m192 72.575-0.0579 0.0232-15.953 4.7988v-0.6749c1.1682-0.7901 2.6221-1.266 3.9011-1.8219 1.4111-0.6131 2.8499-1.163 4.2721-1.7481 2.6251-1.0786 5.2381-2.1878 7.8378-3.3253z" fill="#0075bf"/><path d="m192 83.386c-3.4095 0.366-6.8205 0.718-10.234 1.0607-1.4879 0.15-2.9769 0.3079-4.4668 0.449-0.432 0.0409-0.87 0.0859-1.3102 0.1239v-2.4661c0.1843-0.027 0.3682-0.0539 0.5522-0.082 1.311-0.2018 2.6328-0.3469 3.949-0.517 2.624-0.3379 5.2469-0.6769 7.8709-1.0159 1.2121-0.1565 2.4251-0.3107 3.6386-0.4618z" fill="#0075bf"/><path d="m192 88.48c-3.4603 0.2557-6.9225 0.4834-10.388 0.6772-1.4949 0.0831-2.9891 0.1662-4.4841 0.2501-0.377 0.0209-0.7568 0.0419-1.1378 0.0581v-2.573c0.167-0.0202 0.3328-0.038 0.4978-0.057 1.3521-0.1522 2.7039-0.305 4.0561-0.457 2.7039-0.3041 5.4079-0.5972 8.1138-0.8722 1.1138-0.1128 2.2281-0.2214 3.3424-0.3268z" fill="#0075bf"/><path d="m175.99 92.94c1.0622-0.1182 2.124-0.233 3.1881-0.3322 2.6119-0.243 5.2189-0.527 7.8279-0.7878 1.6656-0.1672 3.3304-0.3438 4.9944-0.5281v3.136c-3.9512 0.3523-7.9061 0.6389-11.869 0.8379-1.381 0.0692-2.7589 0.1202-4.1411 0.1401z" fill="#0075bf"/><path d="m175.99 96.677c0.4039-0.053 0.809-0.0981 1.211-0.146 1.171-0.14 2.3451-0.2302 3.5212-0.3231 2.3468-0.1849 4.695-0.3419 7.0449-0.4751 1.4102-0.0797 2.8213-0.1542 4.2333-0.2203v3.3194c-3.475 0.1165-6.95 0.2253-10.424 0.3509-1.2799 0.0471-2.5609 0.125-3.8418 0.1372-0.5811 0.0048-1.1631 0.0179-1.7442 0.0088z" fill="#0075bf"/><path d="m175.99 101.51c0.3521-0.0428 0.7041-0.0769 1.0602-0.099 1.135-0.0688 2.2688-0.155 3.4049-0.2069 2.2349-0.1029 4.4669-0.2449 6.7-0.3659 1.6158-0.0879 3.2307-0.1834 4.8453-0.2835v3.2567c-3.5629 0.1681-7.1249 0.2676-10.694 0.2826-1.2421 5e-3 -2.482-0.019-3.7242-0.0569-0.5349-0.0159-1.0618-0.0349-1.5919-0.0891z" fill="#0075bf"/><path d="m181.73 106.5c2.1738-0.1611 4.354-0.2549 6.531-0.3771 1.245-0.07 2.4902-0.134 3.7355-0.1933v1.8564h-16.011v-0.6879c0.2191-0.0601 0.4391-0.112 0.6602-0.1432 0.5859-0.0799 1.177-0.129 1.7649-0.191 1.1041-0.116 2.213-0.182 3.3191-0.2639" fill="#0075bf"/><path d="m192 77.892c-3.1108 0.5119-6.2224 1.0193-9.3337 1.527-1.4479 0.2358-2.8941 0.4759-4.3472 0.6758-0.7699 0.1051-1.5429 0.195-2.3148 0.288-5e-3 0-0.0102 0.0011-0.015 0.0011v-1.0511l12.717-3.5849c0.0779-0.0151 0.1548-0.029 0.2319-0.0431l3.0617-0.5687z" fill="#0075bf"/><path d="m179.51 0.2194c1.1954-0.0745 2.5458-0.1522 3.9393-0.2194h5.2572c-1.9148 0.6582-3.8551 1.2521-5.7804 1.8765-1.965 0.637-3.9342 1.2629-5.904 1.8851-0.5372 0.1698-1.0732 0.343-1.6101 0.5139v-2.649c0.2441-0.083 0.4878-0.1661 0.731-0.25 1.122-0.3869 2.244-0.773 3.367-1.1571" fill="#0075bf"/><path d="m192 3.8288c-1.8862 0.8251-3.7854 1.6211-5.6807 2.427-3.617 1.5372-7.2629 3.0101-10.911 4.4722v-2.2082c3.244-1.5029 6.495-2.9948 9.7679-4.43 2.0891-0.9158 4.174-1.8419 6.2759-2.728l0.5477-0.2325z" fill="#0075bf"/><path d="m192 8.4387c-2.6008 1.19-5.2248 2.3366-7.8432 3.4793-2.9152 1.2719-5.817 2.59-8.748 3.8299v-2.384c2.1098-1.0159 4.2381-1.9981 6.3519-3.003 3.3987-1.6166 6.8176-3.187 10.239-4.7517z" fill="#0075bf"/><path d="m192 15.244-0.8054 0.4118c-3.8931 1.9809-7.7981 3.9331-11.719 5.8581-1.126 0.5528-2.2542 1.0999-3.386 1.6399-0.224 0.106-0.4522 0.2191-0.6809 0.333v-2.753c0.6259-0.352 1.2518-0.7021 1.8819-1.0471 1.912-1.0468 3.8231-2.094 5.7351-3.1408 2.9676-1.6254 5.9655-3.2 8.9742-4.7503z" fill="#0075bf"/><path d="m192 22.253c-3.5791 1.9486-7.1802 3.8753-10.806 5.7269-1.1501 0.5859-2.3171 1.14-3.4739 1.7101-0.5791 0.284-1.1531 0.5819-1.7391 0.8518-0.187 0.0862-0.3781 0.1732-0.572 0.2531v-2.6339c0.239-0.1352 0.474-0.2662 0.6888-0.3952 0.9822-0.5879 1.9642-1.1758 2.9461-1.764 1.993-1.1928 4.0501-2.2858 6.0792-3.4168 2.2889-1.2748 4.581-2.5416 6.8774-3.801z" fill="#0075bf"/><path d="m192 28.747c-3.9748 2.2025-8.017 4.269-12.139 6.1874-1.313 0.612-2.6311 1.2062-3.9711 1.7572-0.1598 0.0658-0.3209 0.1279-0.481 0.19v-2.6612c0.794-0.4139 1.5942-0.817 2.3921-1.2229 2.236-1.1389 4.4419-2.3281 6.6459-3.526 2.5401-1.3805 5.057-2.8037 7.5532-4.2627z" fill="#0075bf"/><path d="m192 34.963c-3.3015 2.0146-6.6124 4.0161-9.9579 5.9561-1.1749 0.6809-2.3521 1.357-3.541 2.0138-0.625 0.3452-1.2441 0.7072-1.887 1.019-0.4031 0.1962-0.8019 0.3682-1.2062 0.5321v-2.687c0.3941-0.2871 0.7892-0.568 1.1923-0.843 1.0349-0.707 2.0718-1.4091 3.1209-2.094 2.0651-1.3501 4.1511-2.6679 6.2329-3.9931 2.0089-1.2779 4.0235-2.5487 6.046-3.8067z" fill="#0075bf"/><path d="m179.01 51.77-1.152 0.652c-0.3731-1.4162-0.709-2.8432-1.0469-4.2701-0.2282-0.9641-0.4592-1.927-0.682-2.8919l1.391-0.855c0.2469 1.1529 0.4799 2.31 0.7169 3.4659 0.267 1.2989 0.534 2.5969 0.773 3.8991" fill="#0075bf"/><path d="m181.99 50.083-1.355 0.7662c-0.017-0.0632-0.034-0.1261-0.051-0.1891-0.3639-1.347-0.684-2.7039-0.9961-4.0629-0.233-1.0182-0.453-2.0372-0.6599-3.06l1.5511-0.9541c0.2379 1.2271 0.478 2.454 0.724 3.6799 0.256 1.2751 0.5278 2.5461 0.7869 3.82" fill="#0075bf"/><path d="m185.31 48.203-1.2608 0.713c-0.3572-1.558-0.682-3.125-0.9989-4.6948-0.1931-0.955-0.3861-1.9111-0.5792-2.8661l1.4131-0.8691c0.218 1.1461 0.436 2.2921 0.654 3.437 0.271 1.4261 0.534 2.8511 0.7718 4.28" fill="#0075bf"/><path d="m189.49 45.199c0.0403 0.1899 0.0811 0.3799 0.1231 0.5698l-1.266 0.716c-0.0799-0.3019-0.157-0.6049-0.2358-0.9059-0.3952-1.512-0.7591-3.0289-1.097-4.555-0.1602-0.7229-0.3192-1.4471-0.4743-2.1719l1.4712-0.904c0.176 0.921 0.356 1.8419 0.5448 2.7609 0.307 1.497 0.6191 2.994 0.934 4.4901" fill="#0075bf"/><path d="m192 44.61-0.2387 0.0967c-0.0689-0.2619-0.1369-0.525-0.2069-0.7869-0.3739-1.4031-0.6781-2.827-1.008-4.2401-0.2251-0.9609-0.442-1.9241-0.6512-2.889l1.5472-0.9511c0.1936 0.8896 0.3787 1.7813 0.5576 2.6737z" fill="#0075bf"/><text transform="matrix(1 0 0 -1 73.164 12.399)" fill="#ffffff" font-family="Muller" font-size="2.916px" xml:space="preserve"><tspan x="0 2.9809 5.9906998 8.6829996 9.9342003 12.1157 13.3876 15.5694 17.9757 20.3029 22.5431 24.526199 25.7777 27.959499 29.2311 30.3771 32.783401 35.000401 36.8466 38.068901 40.475201 41.391102" y="0">www.alagoas.al.gov.br </tspan></text><path d="m75.897 42.133h-1.734l1.9409 5.1869h1.838l1.934-5.1869h-1.7339l-0.222 0.6891h-1.7932zm0.9858 3.0311-0.3639-1.1041h1.0162l-0.3643 1.1041c-0.0688 0.2169-0.1179 0.4388-0.1479 0.667-0.0289-0.1981-0.076-0.4201-0.1401-0.667" fill="#fff"/><path d="m80.099 47.32h1.7121v-3.6902h2.215v-1.497h-3.9271z" fill="#fff"/><path d="m85.975 42.133h-1.734l1.9412 5.1869h1.838l1.9338-5.1869h-1.734l-0.2219 0.6891h-1.7929zm0.9862 3.0311-0.364-1.1041h1.0159l-0.3639 1.1041c-0.0692 0.2169-0.1182 0.4388-0.148 0.667-0.0292-0.1981-0.0763-0.4201-0.14-0.667" fill="#fff"/><path d="m89.539 44.727c0 0.459 0.0799 0.8669 0.2409 1.2229 0.161 0.3552 0.3782 0.6392 0.652 0.8521 0.2741 0.212 0.578 0.3711 0.9122 0.4779 0.3328 0.106 0.6868 0.159 1.063 0.159 0.608 0 1.1659-0.104 1.675-0.3109v-1.527c-0.3711 0.233-0.8252 0.3489-1.3641 0.3489-0.415 0-0.756-0.1009-1.023-0.301-0.2662-0.1999-0.4-0.5069-0.4-0.9219 0-0.2321 0.0389-0.4311 0.1148-0.5969 0.0771-0.165 0.1772-0.288 0.3002-0.366 0.1239-0.0791 0.2418-0.1361 0.3561-0.1712 0.1139-0.034 0.2247-0.0519 0.3327-0.0519 0.0601 0 0.129 0.0051 0.2081 0.015v1.4749h1.601v-2.668c-0.5879-0.2318-1.1761-0.3478-1.764-0.3478-0.3849 0-0.7489 0.055-1.0891 0.1659-0.341 0.1119-0.6488 0.2761-0.9229 0.4929-0.2738 0.218-0.491 0.5032-0.652 0.8561s-0.2409 0.752-0.2409 1.197" fill="#fff"/><path d="m95.268 42.781c-0.489 0.5111-0.7342 1.16-0.7342 1.9452 0 0.786 0.2452 1.434 0.7342 1.9448 0.489 0.5122 1.1801 0.7671 2.075 0.7671 0.894 0 1.5848-0.2549 2.0749-0.7671 0.489-0.5108 0.7331-1.1588 0.7331-1.9448 0-0.7852-0.2441-1.4341-0.7331-1.9452-0.4901-0.5108-1.1809-0.767-2.0749-0.767-0.8949 0-1.586 0.2562-2.075 0.767zm2.8488 1.0931c0.1851 0.2069 0.2781 0.4909 0.2781 0.8521 0 0.3608-0.093 0.6448-0.2781 0.8518-0.1848 0.208-0.4427 0.3121-0.7738 0.3121s-0.5891-0.1041-0.7742-0.3121c-0.1859-0.207-0.2778-0.491-0.2778-0.8518 0-0.3612 0.0919-0.6452 0.2778-0.8521 0.1851-0.2081 0.4431-0.311 0.7742-0.311s0.589 0.1029 0.7738 0.311" fill="#fff"/><path d="m101.47 42.133h-1.7339l1.9408 5.1869h1.838l1.9341-5.1869h-1.734l-0.2219 0.6891h-1.7932zm0.9859 3.0311-0.364-1.1041h1.016l-0.364 1.1041c-0.0689 0.2169-0.1179 0.4388-0.148 0.667-0.0289-0.1981-0.0759-0.4201-0.14-0.667" fill="#fff"/><path d="m105.52 45.831c0 0.5239 0.191 0.9219 0.574 1.1971 0.3829 0.2738 0.8711 0.411 1.4641 0.411 0.7359 0 1.3708-0.1431 1.9037-0.43v-1.4822c-0.5329 0.341-1.1058 0.506-1.7189 0.496-0.3059 0-0.4589-0.0759-0.4589-0.229 0-0.07 0.047-0.1318 0.14-0.1888 0.0938-0.057 0.214-0.108 0.36-0.1522 0.1449-0.0448 0.3078-0.093 0.489-0.144 0.18-0.0519 0.36-0.1199 0.5408-0.2038 0.18-0.0842 0.343-0.1831 0.4893-0.2971 0.146-0.1131 0.2647-0.2659 0.3589-0.4589 0.0941-0.1931 0.1408-0.4102 0.1408-0.652 0-1.1222-0.7259-1.6821-2.179-1.6821-0.79 0-1.4768 0.163-2.0588 0.489v1.548c0.6169-0.4051 1.247-0.6069 1.889-0.6069 0.2169 0 0.3688 0.0199 0.4559 0.059 0.0861 0.0388 0.1289 0.104 0.1289 0.193 0 0.0788-0.0618 0.152-0.1848 0.218-0.123 0.0669-0.2789 0.1239-0.4671 0.1709-0.188 0.0471-0.3901 0.1151-0.6069 0.2041-0.218 0.089-0.4201 0.1899-0.6081 0.3028-0.1879 0.1142-0.343 0.278-0.4668 0.4932-0.1231 0.2149-0.1851 0.4629-0.1851 0.7449" fill="#fff"/><path d="m77.222 40.148c0 0.1571 0.028 0.2991 0.085 0.4241 0.057 0.1261 0.1318 0.2271 0.2279 0.3039 0.095 0.0771 0.2021 0.1352 0.3181 0.1752 0.117 0.0399 0.2389 0.0598 0.3659 0.0598 0.2041 0 0.3912-0.0409 0.5621-0.1219v-0.2951c-0.1431 0.0921-0.316 0.138-0.519 0.138-0.2021 0-0.3742-0.0569-0.5159-0.172-0.142-0.1148-0.214-0.2858-0.214-0.512 0-0.127 0.0218-0.2369 0.0638-0.3299 0.043-0.093 0.1-0.1639 0.172-0.2129 0.0732-0.0502 0.1491-0.0862 0.2302-0.1091 0.0799-0.023 0.1658-0.0349 0.256-0.0349 0.1088 0 0.2018 0.0179 0.2778 0.053v0.703h0.295v-0.9071c-0.1859-0.083-0.3829-0.125-0.5918-0.125-0.1341 0-0.2603 0.019-0.3762 0.055-0.1171 0.036-0.2239 0.091-0.3209 0.165-0.098 0.0751-0.174 0.1749-0.231 0.303-0.057 0.127-0.085 0.2741-0.085 0.4399" fill="#fff"/><path d="m81.852 39.79c-0.0419 0.1128-0.0621 0.2319-0.0621 0.358 0 0.1259 0.0202 0.2449 0.0621 0.358 0.042 0.1129 0.1009 0.2149 0.1789 0.3059 0.0779 0.091 0.18 0.1641 0.3081 0.218 0.127 0.0541 0.269 0.081 0.4269 0.081 0.1571 0 0.2991-0.0269 0.4249-0.081 0.127-0.0539 0.2291-0.127 0.3082-0.218 0.0779-0.091 0.1389-0.193 0.18-0.3059 0.0419-0.1131 0.0629-0.2321 0.0629-0.358 0-0.1261-0.021-0.2452-0.0629-0.358-0.0411-0.1131-0.1021-0.2151-0.18-0.3061-0.0791-0.091-0.1812-0.1639-0.3082-0.218-0.1258-0.0539-0.2678-0.0811-0.4249-0.0811-0.1579 0-0.2999 0.0272-0.4269 0.0811-0.1281 0.0541-0.2302 0.127-0.3081 0.218-0.078 0.091-0.1369 0.193-0.1789 0.3061zm1.408-0.125c0.1159 0.131 0.174 0.292 0.174 0.483 0 0.1908-0.0581 0.3518-0.174 0.4828-0.1159 0.1301-0.2801 0.1961-0.4941 0.1961-0.2129 0-0.377-0.066-0.4941-0.1961-0.1159-0.131-0.1749-0.292-0.1749-0.4828 0-0.191 0.059-0.352 0.1749-0.483 0.1171-0.131 0.2812-0.1962 0.4941-0.1962 0.214 0 0.3782 0.0652 0.4941 0.1962" fill="#fff"/><path d="m87.56 39.22h-0.3129l-0.7481 1.8558h0.3263l0.578-1.506 0.5788 1.506h0.326z" fill="#fff"/><path d="m91.262 41.076h1.2778v-0.2758h-0.9759v-0.506h0.8968v-0.2761h-0.8968v-0.5221h0.9921v-0.2758h-1.294z" fill="#fff"/><path d="m95.914 39.22h-0.3019v1.8558h0.7419c0.0921 0 0.178-0.0088 0.259-0.0289 0.08-0.019 0.156-0.051 0.226-0.0941 0.0711-0.0428 0.127-0.104 0.1681-0.182 0.0399-0.0768 0.0609-0.1689 0.0609-0.275 0-0.1559-0.0419-0.278-0.125-0.3679-0.0831-0.089-0.1919-0.1499-0.3268-0.1811l0.595-0.7268h-0.3632l-0.5578 0.695h-0.3762zm0 1.58v-0.6171h0.453c0.114 0 0.2069 0.023 0.2812 0.0709 0.0748 0.0482 0.112 0.127 0.112 0.2361 0 0.11-0.0372 0.1891-0.112 0.2381-0.0743 0.0479-0.1672 0.072-0.2812 0.072z" fill="#fff"/><path d="m100.48 39.22h-0.3022v1.8558h0.2832l0.9998-1.3569c-2e-3 0.0419-2e-3 0.11-2e-3 0.2041v1.1528h0.3022v-1.8558h-0.2841l-1 1.3578c2e-3 -0.042 3e-3 -0.11 3e-3 -0.2019v-1.1559z" fill="#fff"/><path d="m104.86 39.79c-0.042 0.1128-0.0618 0.2319-0.0618 0.358 0 0.1259 0.0198 0.2449 0.0618 0.358 0.0411 0.1129 0.1012 0.2149 0.1791 0.3059 0.078 0.091 0.18 0.1641 0.3079 0.218 0.127 0.0541 0.269 0.081 0.4272 0.081 0.1567 0 0.2987-0.0269 0.4249-0.081 0.127-0.0539 0.229-0.127 0.3078-0.218 0.0783-0.091 0.1392-0.193 0.18-0.3059 0.0423-0.1131 0.0632-0.2321 0.0632-0.358 0-0.1261-0.0209-0.2452-0.0632-0.358-0.0408-0.1131-0.1017-0.2151-0.18-0.3061-0.0788-0.091-0.1808-0.1639-0.3078-0.218-0.1262-0.0539-0.2682-0.0811-0.4249-0.0811-0.1582 0-0.3002 0.0272-0.4272 0.0811-0.1279 0.0541-0.2299 0.127-0.3079 0.218-0.0779 0.091-0.138 0.193-0.1791 0.3061zm1.408-0.125c0.1162 0.131 0.174 0.292 0.174 0.483 0 0.1908-0.0578 0.3518-0.174 0.4828-0.116 0.1301-0.2798 0.1961-0.4938 0.1961-0.2132 0-0.377-0.066-0.4941-0.1961-0.1159-0.131-0.1749-0.292-0.1749-0.4828 0-0.191 0.059-0.352 0.1749-0.483 0.1171-0.131 0.2809-0.1962 0.4941-0.1962 0.214 0 0.3778 0.0652 0.4938 0.1962" fill="#fff"/><path d="m89.096 61.851 0.1911 0.2928h-2.092l0.1911-0.2928z" fill="#fff"/><path d="m87.096 63.248v-0.8719h2.2889v0.8719h-0.2729v-0.388c0-0.0641-0.0519-0.116-0.116-0.116h-0.504c-0.064 0-0.1151 0.0519-0.1151 0.116v0.388h-0.2729v-0.388c0-0.0641-0.0519-0.116-0.116-0.116h-0.504c-0.064 0-0.1159 0.0519-0.1159 0.116v0.388z" fill="#fff"/><path d="m94.267 69.334c0.0238 0.0479-0.019 0.1009-0.0711 0.0879l-0.7838-0.3949c0.0079-0.015 0.0147-0.03 0.021-0.045l0.0068 0.0031v8e-4h0.0011l0.2299 0.1162c0.011 6e-3 0.0241 2e-3 0.03-9e-3 0.0051-0.0111 0.0012-0.0241-0.0099-0.0301l-0.235-0.119h-0.0011l-0.0068-4e-3c0.0039-0.0111 0.0068-0.023 0.0088-0.034l0.2361 0.119c0.011 6e-3 0.0241 9e-4 0.03-9e-3 0.0049-0.0111 9e-4 -0.0241-0.0102-0.0301l-0.2488-0.1258c0-0.0091 0.0011-0.0182 0.0011-0.027 0-0.0042-0.0011-0.0071-0.0011-0.0102l0.2488-0.1258c0.0111-0.0051 0.0151-0.0182 0.0102-0.0292-0.0031-6e-3 -0.0082-0.0099-0.0141-0.0108-0.0049-2e-3 -0.0108-2e-3 -0.0159 9e-4l-0.233 0.1179c-2e-3 -0.0119-4e-3 -0.0238-0.0071-0.0349l0.2381-0.121c0.0111-6e-3 0.015-0.019 0.0099-0.0301-0.0028-0.0048-0.0079-0.0088-0.0139-0.011-0.0051-9e-4 -0.011-9e-4 -0.0161 0.0022l-0.2319 0.1168c-0.0071-0.0198-0.0161-0.0399-0.0269-0.0589l0.7838-0.396c0.0521-0.0131 0.0949 0.0411 0.0711 0.089l-0.229 0.4541c-0.0159 0.0309-0.0159 0.0689 0 0.1z" fill="#fff"/><path d="m92.753 69.163c0.0428-0.0108 0.0839-0.0238 0.1219-0.038 0.0182 0.051 0.0111 0.11-0.0249 0.1551-0.0091 0.0119-0.0182 0.0241-0.027 0.038-0.0901 0.1349-0.0929 0.2571-0.0929 0.2571l-0.4213-0.33c0.0272-4e-3 0.0562-0.0071 0.0871-0.0122 0.0011 0.0012 0.0011 0.0012 0.0019 2e-3l0.2291 0.1862c0.0091 8e-3 0.0229 6e-3 0.0312-0.0031 0.0068-0.0099 0.0059-0.0229-4e-3 -0.0309l-0.2001-0.163c0.015-0.0022 0.0309-0.0051 0.0459-0.0071l0.165 0.133c9e-3 0.0079 0.0229 0.0059 0.03-0.0031 8e-3 -0.0088 0.0071-0.023-0.0028-0.0309l-0.1352-0.1089c0.015-0.0031 0.03-0.0062 0.045-9e-3l0.1001 0.081c0.0099 8e-3 0.0241 6e-3 0.0309-0.0031 0.0079-0.0091 6e-3 -0.023-0.0028-0.0309l-0.0732-0.0592c0.0151-0.0029 0.0289-6e-3 0.0431-0.01l0.044 0.036c0.0099 8e-3 0.0229 6e-3 0.0309-0.0028 0.0082-0.0091 0.0062-0.0232-0.0029-0.0312z" fill="#fff"/><path d="m91.868 69.282c0.0071 0.034 0.0099 0.0649 0.0071 0.0859-0.0332 0.2321-0.159 0.2962-0.159 0.2962l-0.267-0.383c0.0209 9e-4 0.0439 9e-4 0.07 2e-3l0.1479 0.22c6e-3 0.0099 0.0202 0.0119 0.0301 0.0059 0.0099-0.0071 0.013-0.0209 0.0059-0.0309l-0.1309-0.1941c0.0139 0 0.028 0.0011 0.0431 0.0011l0.108 0.161c0.0068 0.0099 0.0209 0.013 0.0309 6e-3 0.0099-0.0071 0.013-0.021 0.0059-0.0312l-0.0918-0.1358h0.0419l0.07 0.104c0.0068 0.0099 0.021 0.0128 0.0309 6e-3 0.01-0.0071 0.0119-0.0201 6e-3 -0.0301l-0.0539-0.0799c0.034-0.0011 0.0689-2e-3 0.1049-0.0031" fill="#fff"/><path d="m92.39 68.386c-0.0329-9e-3 -0.0598-0.015-0.076-0.0189l0.3991-0.3141s0.0029 0.1219 0.093 0.2571c0.0091 0.0139 0.0179 0.0269 0.0269 0.038 0.042 0.053 0.0451 0.125 0.0131 0.18-0.042-0.017-0.0859-0.0332-0.1321-0.0482l0.0411-0.0329c0.0091-0.0071 0.011-0.021 0.0028-0.0309-0.0079-0.0091-0.0209-0.0102-0.0309-0.0031l-0.062 0.051c-0.0128-4e-3 -0.025-0.0079-0.0369-0.0111l0.085-0.07c0.01-0.0068 0.0111-0.021 0.0029-0.0309-0.0068-9e-3 -0.021-0.0099-0.0309-0.0031l-0.108 0.0882c-0.0139-4e-3 -0.0281-8e-3 -0.0411-0.0111l0.1392-0.1139c0.0099-0.0071 0.0107-0.021 0.0039-0.0312-0.0079-0.0088-0.0221-0.0099-0.0312-0.0029l-0.1638 0.133c-0.0142-4e-3 -0.0281-0.0079-0.0411-0.0111l0.1942-0.159c0.0099-0.0068 0.0107-0.021 0.0039-0.03-0.0082-0.01-0.0221-0.0108-0.0311-4e-3z" fill="#fff"/><path d="m91.538 67.97-0.152 0.2528c-0.0011 2e-3 -0.0011 4e-3 -0.0019 6e-3h-0.0352c-0.017 0-0.0329 0-0.047 0.0011l0.2451-0.3909s0.072 0.0408 0.146 0.106c0.0159 0.0139 0.0281 0.0278 0.038 0.0428 0.0349 0.0531 0.0349 0.1222 0 0.1761l-0.0541 0.083c-0.023-2e-3 -0.0448-0.0039-0.0661-0.0059l0.0842-0.1412c6e-3 -0.0108 0.0029-0.0238-0.0071-0.03-0.011-6e-3 -0.0241-0.0029-0.0309 0.0071l-0.0949 0.1601c-0.0142-0.0011-0.0272-2e-3 -0.0391-2e-3l0.1119-0.189c0.0071-0.01 0.0031-0.0241-0.0071-0.0301-0.0107-0.0059-0.0238-0.0031-0.0297 0.0079l-0.125 0.2081c-0.0142-0.0011-0.0272-0.0011-0.04-2e-3l0.1429-0.2381c0.0059-0.0099 0.0019-0.0229-8e-3 -0.03-0.0102-6e-3 -0.0241-2e-3 -0.03 0.0082" fill="#fff"/><path d="m90.046 68.853c-0.0289 0-0.0519-0.023-0.0519-0.0522 0-0.028 0.023-0.051 0.0519-0.051s0.0522 0.023 0.0522 0.051c0 0.0292-0.0233 0.0522-0.0522 0.0522" fill="#fff"/><path d="m92.873 68.6c4e-3 0.0011 0.0091 0.0031 0.013 0.0042 0.0032 9e-4 0.0071 2e-3 0.0111 0.0028 0.0961 0.0241 0.203 0.038 0.3149 0.038 0.0451 0 0.0882-2e-3 0.1301-0.0059 0.0349 0.0621 0.053 0.127 0.053 0.1939v0.0011c0 0.066-0.0181 0.131-0.053 0.193-0.0419-0.0039-0.085-0.0059-0.1301-0.0059-0.1119 0-0.218 0.013-0.3141 0.038-0.0048 0-0.0087 8e-4 -0.0127 2e-3 -0.0063 0.0019-0.0122 0.0039-0.0182 0.0059-0.0201 6e-3 -0.0399 0.0119-0.0589 0.019-0.2829 0.089-0.7192 0.1409-1.169 0.1409-0.8391 0-1.986-0.2619-1.986-0.47 0-9e-4 0-0.038 0.027-0.0788 0.0059-0.0091 0.013-0.0181 0.0221-0.0272 0.0379 0.0071 0.0768 0.019 0.1139 0.036 0.0028 0.0011 0.0048 2e-3 8e-3 0.0031 0.0158 0.0079 0.036 0.0011 0.0439-0.0159 0.0071-0.0161 0-0.0351-0.0159-0.0431-0.0031-0.0011-0.0059-0.0031-0.0091-0.0039-0.0241-0.0111-0.049-0.021-0.0751-0.0281-8e-4 0-0.0028-0.0011-0.0048-0.0011 0.0071-6e-3 0.015-0.0119 0.0238-0.017 0.1293-0.0848 0.3512-0.1639 0.6602-0.2189 0.0768 0.0871 0.1239 0.201 0.1239 0.326v8e-3c0 0.0181 0.0142 0.0331 0.0331 0.0331 0.0179 0 0.0321-0.0142 0.0329-0.032v-0.0091c0-0.1281-0.0431-0.2449-0.1151-0.339 0.2441-0.038 0.5361-0.061 0.8762-0.061 0.415 0 1.0591 0.1591 1.342 0.264 0.0411 0.0189 0.0858 0.0351 0.1329 0.0479zm-2.8069 0.079c-0.0561 0-0.102 0.046-0.102 0.1021 0 0.057 0.0459 0.102 0.102 0.102 0.057 0 0.1029-0.045 0.1029-0.102 0-0.0561-0.0459-0.1021-0.1029-0.1021zm0.6869 0.2271c0.0011 2e-3 0.0031 2e-3 0.0051 0.0031l0.0348 0.0099h0.0012l0.248 0.072c0.0111 4e-3 0.0241-0.0031 0.0269-0.015 0.0031-0.011-0.0028-0.0241-0.015-0.0269l-0.2528-0.0731-0.0012-9e-4 -0.0178-0.0051c-0.0091 0.013-0.0182 0.0249-0.0292 0.036zm0.3231-0.0099c4e-3 -0.0111-0.0031-0.023-0.015-0.0272l-0.248-0.072c-0.0032 0.015-8e-3 0.0292-0.0139 0.0422l0.25 0.072c0.0119 4e-3 0.0238-0.0031 0.0269-0.015zm0.0261-0.3561h-0.0641c-0.0249 0-0.045 0.0199-0.045 0.0451 0 0.0238 0.0201 0.044 0.045 0.044h0.0641c0.0249 0 0.0448-0.0202 0.0448-0.044 0-0.0252-0.0199-0.0451-0.0448-0.0451zm0.2208-0.0861h-0.0649c-0.0241 0-0.0439 0.019-0.0439 0.0442 0 0.0249 0.0198 0.0448 0.0439 0.0448h0.0649c0.025 0 0.0451-0.0199 0.0451-0.0448 0-0.0252-0.0201-0.0442-0.0451-0.0442zm0 0.1732h-0.0649c-0.0241 0-0.0439 0.0198-0.0439 0.0439 0 0.025 0.0198 0.0451 0.0439 0.0451h0.0649c0.025 0 0.0451-0.0201 0.0451-0.0451 0-0.0241-0.0201-0.0439-0.0451-0.0439zm-0.2591 0.1009c-0.036-0.0369-0.0847-0.0561-0.1338-0.0561-0.0241 0-0.049 0.0042-0.072 0.0141l-0.0541 0.023c-0.0119 0.0051-0.0179 0.0201-0.0131 0.032 0.0063 0.0131 0.0202 0.019 0.0332 0.0131l0.0539-0.0221c0.051-0.0219 0.1111-0.01 0.1499 0.03 0.091 0.0941 0.2393 0.2489 0.3342 0.3509l-0.6329-0.176c-0.0131-4e-3 -0.0273 4e-3 -0.0312 0.017-0.0029 0.013 0.0051 0.0272 0.0181 0.0301l0.7149 0.2001c0.0099 0.0028 0.021-2e-3 0.0269-0.0111 0.0063-9e-3 0.0051-0.021-0.0019-0.0289-0.0788-0.0901-0.2798-0.299-0.3921-0.4161zm0.483-0.188h-0.0637c-0.0253 0-0.0451 0.0199-0.0451 0.0451 0 0.0238 0.0198 0.044 0.0451 0.044h0.0637c0.0253 0 0.0451-0.0202 0.0451-0.044 0-0.0252-0.0198-0.0451-0.0451-0.0451zm0 0.173h-0.0637c-0.0253 0-0.0451 0.0201-0.0451 0.045 0 0.0241 0.0198 0.044 0.0451 0.044h0.0637c0.0253 0 0.0451-0.0199 0.0451-0.044 0-0.0249-0.0198-0.045-0.0451-0.045zm0.2251-0.2591h-0.0649c-0.0241 0-0.0439 0.019-0.0439 0.0442 0 0.0249 0.0198 0.0448 0.0439 0.0448h0.0649c0.025 0 0.044-0.0199 0.044-0.0448 0-0.0252-0.019-0.0442-0.044-0.0442zm0 0.1732h-0.0649c-0.0241 0-0.0439 0.0198-0.0439 0.0439 0 0.025 0.0198 0.0451 0.0439 0.0451h0.0649c0.025 0 0.044-0.0201 0.044-0.0451 0-0.0241-0.019-0.0439-0.044-0.0439zm0 0.1729h-0.0649c-0.0241 0-0.0439 0.0201-0.0439 0.0439 0 0.025 0.0198 0.0451 0.0439 0.0451h0.0649c0.025 0 0.044-0.0201 0.044-0.0451 0-0.0238-0.019-0.0439-0.044-0.0439zm0.224-0.26h-0.0638c-0.0253 0-0.0451 0.0199-0.0451 0.0451 0 0.0238 0.0198 0.044 0.0451 0.044h0.0638c0.0252 0 0.045-0.0202 0.045-0.044 0-0.0252-0.0198-0.0451-0.045-0.0451zm0 0.173h-0.0638c-0.0253 0-0.0451 0.0201-0.0451 0.045 0 0.0241 0.0198 0.044 0.0451 0.044h0.0638c0.0252 0 0.045-0.0199 0.045-0.044 0-0.0249-0.0198-0.045-0.045-0.045zm0.225-0.0859h-0.0649c-0.0249 0-0.0451 0.0198-0.0451 0.0439 0 0.025 0.0202 0.0451 0.0451 0.0451h0.0649c0.0241 0 0.044-0.0201 0.044-0.0451 0-0.0241-0.0199-0.0439-0.044-0.0439zm0 0.1729h-0.0649c-0.0249 0-0.0451 0.0201-0.0451 0.0439 0 0.025 0.0202 0.0451 0.0451 0.0451h0.0649c0.0241 0 0.044-0.0201 0.044-0.0451 0-0.0238-0.0199-0.0439-0.044-0.0439zm0.224-0.087h-0.0649c-0.0241 0-0.044 0.0201-0.044 0.045 0 0.0241 0.0199 0.044 0.044 0.044h0.0649c0.0252 0 0.045-0.0199 0.045-0.044 0-0.0249-0.0198-0.045-0.045-0.045" fill="#fff"/><path d="m97.402 67.778c0.0241 0.0479-0.0189 0.1009-0.0708 0.0879l-0.7841-0.3949c8e-3 -0.015 0.015-0.0301 0.021-0.0451l0.0071 0.0031 8e-4 9e-4 0.2299 0.1159c0.0111 6e-3 0.0241 2e-3 0.0301-0.0088 0.0051-0.011 0.0011-0.0241-0.01-0.03l-0.2349-0.1191h-0.0012l-0.0068-0.0039c4e-3 -0.0111 0.0068-0.023 0.0091-0.0341l0.2358 0.1191c0.0111 6e-3 0.0241 9e-4 0.0301-0.0091 0.0051-0.011 8e-4 -0.0241-0.0099-0.03l-0.2492-0.1259c0-9e-3 0.0011-0.0181 0.0011-0.0272 0-4e-3 -0.0011-0.0068-0.0011-0.0099l0.2492-0.1259c0.0107-0.0051 0.015-0.0181 0.0099-0.0292-0.0031-0.0059-8e-3 -0.0099-0.0139-0.011-0.0051-2e-3 -0.0111-2e-3 -0.0162 0.0011l-0.233 0.1179c-2e-3 -0.0119-0.0039-0.0238-0.0071-0.0348l0.2381-0.1211c0.0111-0.0059 0.0151-0.019 0.01-0.03-0.0029-0.0051-8e-3 -0.0091-0.0139-0.0111-0.0051-8e-4 -0.0111-8e-4 -0.0162 2e-3l-0.2319 0.1171c-7e-3 -0.0199-0.0158-0.04-0.0269-0.059l0.7841-0.396c0.0519-0.013 0.0949 0.0411 0.0708 0.089l-0.229 0.4541c-0.0159 0.0309-0.0159 0.0689 0 0.0998z" fill="#fff"/><path d="m95.888 67.607c0.0428-0.0111 0.0839-0.0241 0.1218-0.038 0.0182 0.051 0.0111 0.11-0.0249 0.155-0.0091 0.0119-0.0181 0.0241-0.0269 0.038-0.0902 0.135-0.093 0.2571-0.093 0.2571l-0.4212-0.3302c0.0272-4e-3 0.0561-0.0068 0.087-0.0119l2e-3 2e-3 0.229 0.1859c0.0091 0.0082 0.023 6e-3 0.0312-0.0028 0.0068-0.0102 6e-3 -0.023-0.0043-0.0312l-0.1998-0.163c0.015-2e-3 0.0309-0.0048 0.0459-0.0068l0.165 0.133c0.0091 0.0079 0.023 0.0059 0.0312-0.0032 0.0068-9e-3 0.0059-0.0229-0.0043-0.0309l-0.1349-0.1091c0.015-0.0028 0.03-0.0059 0.0451-0.0088l0.1 0.0808c0.01 0.0082 0.0238 0.0062 0.0309-0.0028 8e-3 -0.0091 6e-3 -0.023-0.0028-0.0312l-0.0731-0.059c0.015-0.0028 0.0289-0.0059 0.0431-0.0099l0.0439 0.036c0.0099 0.0079 0.0229 6e-3 0.0309-0.0031 0.0079-0.0088 0.0059-0.023-0.0028-0.0309z" fill="#fff"/><path d="m95.003 67.726c0.0071 0.0341 0.0103 0.065 0.0071 0.0859-0.0328 0.2322-0.159 0.296-0.159 0.296l-0.267-0.383c0.021 0.0011 0.0439 0.0011 0.07 2e-3l0.1471 0.2202c0.0068 0.01 0.021 0.0119 0.0309 6e-3 0.0099-0.0071 0.0131-0.021 6e-3 -0.0312l-0.131-0.1939c0.0142 0 0.0281 9e-4 0.0431 9e-4l0.108 0.161c0.0071 0.0102 0.021 0.013 0.0309 0.0062 0.0099-0.0071 0.0122-0.021 0.0059-0.0312l-0.0918-0.136h0.042l0.07 0.104c0.0071 0.0102 0.021 0.013 0.0309 0.0062 0.0102-7e-3 0.0122-0.0201 0.0059-0.03l-0.0538-0.0802c0.034-9e-4 0.0688-2e-3 0.1048-0.0029" fill="#fff"/><path d="m95.525 66.83c-0.0329-0.0091-0.0598-0.015-0.0759-0.019l0.3991-0.3141s0.0031 0.1219 0.093 0.2571c9e-3 0.0139 0.0181 0.027 0.0269 0.038 0.0419 0.053 0.0451 0.125 0.013 0.18-0.0419-0.017-0.0859-0.0331-0.1321-0.0482l0.0411-0.0328c0.0091-0.0071 0.0111-0.021 0.0031-0.0312-0.0082-0.0088-0.0209-0.01-0.0311-0.0029l-0.0618 0.0511c-0.0131-4e-3 -0.0253-8e-3 -0.038-0.0111l0.0859-0.07c9e-3 -0.0071 0.011-0.021 0.0031-0.0309-0.0071-0.0091-0.0213-0.0102-0.0312-0.0031l-0.108 0.0881c-0.0139-0.0042-0.0281-0.0082-0.0408-0.011l0.1389-0.114c0.0099-0.0071 0.011-0.0212 4e-3 -0.0312-8e-3 -9e-3 -0.0222-0.0099-0.0309-0.0028l-0.1642 0.133c-0.0139-4e-3 -0.028-8e-3 -0.0419-0.0111l0.195-0.159c0.0099-0.0071 0.0111-0.021 4e-3 -0.0301-8e-3 -0.0099-0.0221-0.011-0.0309-0.0039z" fill="#fff"/><path d="m94.673 66.414-0.1519 0.2531c-0.0012 2e-3 -0.0012 4e-3 -2e-3 6e-3h-0.0352c-0.017 0-0.0328 0-0.047 0.0011l0.2452-0.3912s0.072 0.0411 0.146 0.106c0.0158 0.0142 0.0277 0.0281 0.038 0.0431 0.0348 0.053 0.0348 0.1219 0 0.176l-0.0542 0.0831c-0.0229-2e-3 -0.0451-4e-3 -0.066-6e-3l0.0842-0.1411c0.0059-0.0111 0.0028-0.0241-0.0071-0.0301-0.0111-0.0059-0.0241-0.0028-0.0309 0.0071l-0.0953 0.1599c-0.0139-9e-4 -0.0269-2e-3 -0.0388-2e-3l0.112-0.1888c7e-3 -0.0102 0.0031-0.0241-0.0071-0.03-0.0108-6e-3 -0.0238-0.0031-0.0301 0.0079l-0.1247 0.2081c-0.0142-0.0012-0.0272-0.0012-0.0403-2e-3l0.1432-0.2381c6e-3 -0.0099 2e-3 -0.023-0.0079-0.0301-0.0102-0.0059-0.0241-2e-3 -0.0301 8e-3" fill="#fff"/><path d="m93.181 67.193c0.0292 0 0.0522 0.023 0.0522 0.0519 0 0.028-0.023 0.051-0.0522 0.051-0.0289 0-0.0518-0.023-0.0518-0.051 0-0.0289 0.0229-0.0519 0.0518-0.0519" fill="#fff"/><path d="m92.788 67.2s0-0.038 0.0269-0.078c0.0071-9e-3 0.0139-0.019 0.0218-0.028 0.0391 0.0082 0.0771 0.019 0.1143 0.036 0.0028 0.0011 0.0048 0.0031 0.0079 0.0042 0.017 8e-3 0.0369 9e-4 0.0439-0.0161v-9e-4c8e-3 -0.0161 0.0012-0.0351-0.015-0.0431-0.0028-0.0011-0.0059-0.0019-0.0091-0.0039-0.0249-0.0111-0.0498-0.0202-0.0748-0.027-2e-3 -0.0011-4e-3 -0.0011-0.0059-0.0022 0.0079-0.0048 0.0158-0.0108 0.0238-0.017 0.1289-0.0839 0.3512-0.1639 0.661-0.2189 0.076 0.0871 0.123 0.201 0.123 0.326v0.0079c0 0.019 0.0151 0.0341 0.0332 0.0341 0.0179 0 0.0329-0.0139 0.0329-0.0321v-0.0099c0-0.127-0.0431-0.2441-0.114-0.3379 0.243-0.038 0.5349-0.0621 0.8759-0.0621 0.4142 0 1.0591 0.1599 1.3411 0.2651 0.0408 0.0178 0.0859 0.034 0.1329 0.0479 0.0052 0.0011 0.0091 2e-3 0.0131 4e-3 0.0028 0.0011 0.0071 0.0019 0.0119 0.0019 0.0961 0.025 0.203 0.038 0.3149 0.038 0.0442 0 0.0882-2e-3 0.1301-0.0059 0.034 0.0629 0.053 0.1281 0.053 0.1939v0.0022c-8e-4 0.0658-0.019 0.1299-0.0538 0.1919-0.0423-0.0039-0.0851-0.0059-0.1293-0.0059-0.1119 0-0.2188 0.0139-0.3138 0.038-0.0059 8e-4 -0.0102 2e-3 -0.0141 0.0028-6e-3 2e-3 -0.012 4e-3 -0.0179 0.0062-0.0201 0.0049-0.0391 0.0119-0.0581 0.0179-0.284 0.089-0.72 0.1409-1.1699 0.1409-0.839 0-1.9859-0.2619-1.9859-0.47zm2.7278 0.0462h0.0652c0.0238 0 0.0439-0.0201 0.0439-0.0451 0-0.0241-0.0201-0.0439-0.0439-0.0439h-0.0652c-0.025 0-0.0448 0.0198-0.0448 0.0439 0 0.025 0.0198 0.0451 0.0448 0.0451zm-0.2248 0.087h0.0649c0.0249 0 0.0451-0.0201 0.0451-0.045 0-0.025-0.0202-0.0451-0.0451-0.0451h-0.0649c-0.0241 0-0.0443 0.0201-0.0443 0.0451 0 0.0249 0.0202 0.045 0.0443 0.045zm0-0.174h0.0649c0.0249 0 0.0451-0.0202 0.0451-0.044 0-0.0252-0.0202-0.045-0.0451-0.045h-0.0649c-0.0241 0-0.0443 0.0198-0.0443 0.045 0 0.0238 0.0202 0.044 0.0443 0.044zm-0.2243 0.087h0.0652c0.0239 0 0.044-0.0201 0.044-0.0451 0-0.0241-0.0201-0.0439-0.044-0.0439h-0.0652c-0.0249 0-0.0447 0.0198-0.0447 0.0439 0 0.025 0.0198 0.0451 0.0447 0.0451zm0-0.1732h0.0652c0.0239 0 0.044-0.0198 0.044-0.0448 0-0.0241-0.0201-0.0442-0.044-0.0442h-0.0652c-0.0249 0-0.0447 0.0201-0.0447 0.0442 0 0.025 0.0198 0.0448 0.0447 0.0448zm-0.2239 0.2602h0.0641c0.0249 0 0.045-0.0201 0.045-0.045 0-0.025-0.0201-0.0451-0.045-0.0451h-0.0641c-0.0249 0-0.0451 0.0201-0.0451 0.0451 0 0.0249 0.0202 0.045 0.0451 0.045zm0-0.174h0.0641c0.0249 0 0.045-0.0202 0.045-0.044 0-0.0252-0.0201-0.045-0.045-0.045h-0.0641c-0.0249 0-0.0451 0.0198-0.0451 0.045 0 0.0238 0.0202 0.044 0.0451 0.044zm0-0.1732h0.0641c0.0249 0 0.045-0.0199 0.045-0.044 0-0.0249-0.0201-0.045-0.045-0.045h-0.0641c-0.0249 0-0.0451 0.0201-0.0451 0.045 0 0.0241 0.0202 0.044 0.0451 0.044zm-0.955 0.3642c2e-3 9e-4 4e-3 2e-3 6e-3 2e-3l0.034 0.0099 0.0011 9e-4 0.2481 0.072c0.0119 0.0031 0.0238-4e-3 0.0269-0.015 0.0039-0.0119-0.0031-0.0238-0.015-0.027l-0.2532-0.074h-8e-4l-0.0182-0.0048c-0.0079 0.0128-0.0178 0.025-0.0289 0.036zm0.3232-0.0102c0.0039-0.0119-0.0032-0.0238-0.0142-0.0269l-0.2489-0.072c-0.0031 0.0139-0.0071 0.0281-0.013 0.0411l0.2489 0.0728c0.0121 0.0032 0.024-0.0039 0.0272-0.015zm0.0258-0.356h-0.0638c-0.0252 0-0.0451 0.0201-0.0451 0.0442 0 0.025 0.0199 0.0448 0.0451 0.0448h0.0638c0.0252 0 0.045-0.0198 0.045-0.0448 0-0.0241-0.0198-0.0442-0.045-0.0442zm0.2211-0.087h-0.0641c-0.0249 0-0.0451 0.0201-0.0451 0.045 0 0.0241 0.0202 0.044 0.0451 0.044h0.0641c0.0249 0 0.045-0.0199 0.045-0.044 0-0.0249-0.0201-0.045-0.045-0.045zm0 0.1732h-0.0641c-0.0249 0-0.0451 0.0198-0.0451 0.045 0 0.0238 0.0202 0.044 0.0451 0.044h0.0641c0.0249 0 0.045-0.0202 0.045-0.044 0-0.0252-0.0201-0.045-0.045-0.045zm0.225-0.0862h-0.0652c-0.0249 0-0.0439 0.0201-0.0439 0.0442 0 0.025 0.019 0.0448 0.0439 0.0448h0.0652c0.025 0 0.0448-0.0198 0.0448-0.0448 0-0.0241-0.0198-0.0442-0.0448-0.0442zm0 0.2622c0.025 0 0.0448-0.0201 0.0448-0.0451 0-0.0241-0.0198-0.0439-0.0448-0.0439h-0.0652c-0.0249 0-0.0439 0.0198-0.0439 0.0439 0 0.025 0.019 0.0451 0.0439 0.0451zm-0.8319 0.182 0.7149 0.199c0.011 0.0028 0.0221-0.0012 0.028-0.0111 0.0048-0.0091 0.0048-0.021-0.0031-0.0289-0.0779-0.089-0.2789-0.299-0.392-0.415-0.0349-0.0371-0.0839-0.057-0.1338-0.057-0.0241 0-0.0482 0.0049-0.0712 0.0148l-0.0538 0.0232c-0.0131 0.0048-0.019 0.019-0.0131 0.0318 0.0049 0.0122 0.0199 0.0181 0.0321 0.013l0.0538-0.023c0.051-0.0218 0.112-9e-3 0.1511 0.0312 0.0899 0.0939 0.239 0.2478 0.3331 0.351l-0.6333-0.1772c-0.0127-0.0028-0.0258 4e-3 -0.0297 0.0181-4e-3 0.0131 0.0039 0.0261 0.017 0.0301zm-0.6492-0.1012c0.0562 0 0.1021-0.0459 0.1021-0.1018 0-0.0572-0.0459-0.1032-0.1021-0.1032-0.0569 0-0.1029 0.046-0.1029 0.1032 0 0.0559 0.046 0.1018 0.1029 0.1018" fill="#fff"/><path d="m91.132 67.778c0.0238 0.0479-0.019 0.1009-0.0712 0.0879l-0.784-0.3949c0.0082-0.015 0.015-0.0301 0.0209-0.0451l0.0071 0.0031 0.0012 9e-4 0.2298 0.1159c0.0111 6e-3 0.0241 2e-3 0.0301-0.0088 0.0051-0.011 8e-4 -0.0241-0.0099-0.03l-0.235-0.1191h-0.0012l-7e-3 -0.0039c0.0039-0.0111 7e-3 -0.023 9e-3 -0.0341l0.2362 0.1191c0.0107 6e-3 0.0238 9e-4 0.0297-0.0091 0.0051-0.011 0.0012-0.0241-0.0099-0.03l-0.2489-0.1259c0-9e-3 9e-4 -0.0181 9e-4 -0.0272 0-4e-3 -9e-4 -0.0068-9e-4 -0.0099l0.2489-0.1259c0.0111-0.0051 0.015-0.0181 0.0099-0.0292-0.0028-0.0059-0.0079-0.0099-0.0139-0.011-0.0051-2e-3 -0.011-2e-3 -0.0158 0.0011l-0.233 0.1179c-2e-3 -0.0119-4e-3 -0.0238-0.0071-0.0348l0.2381-0.1211c0.0107-0.0059 0.015-0.019 0.0099-0.03-0.0031-0.0051-0.0079-0.0091-0.0142-0.0111-0.0048-8e-4 -0.0107-8e-4 -0.0159 2e-3l-0.2318 0.1171c-0.0071-0.0199-0.0162-0.04-0.0272-0.059l0.784-0.396c0.0522-0.013 0.095 0.0411 0.0712 0.089l-0.2291 0.4541c-0.0161 0.0309-0.0161 0.0689 0 0.0998z" fill="#fff"/><path d="m89.618 67.607c0.0428-0.0111 0.0839-0.0241 0.1219-0.038 0.0178 0.051 0.011 0.11-0.025 0.155-9e-3 0.0119-0.0181 0.0241-0.0272 0.038-0.0898 0.135-0.093 0.2571-0.093 0.2571l-0.4209-0.3302c0.0269-4e-3 0.0561-0.0068 0.087-0.0119 0.0012 0.0011 0.0012 0.0011 2e-3 2e-3l0.229 0.1859c0.0091 0.0082 0.023 6e-3 0.0309-0.0028 0.0071-0.0102 0.0063-0.023-0.0039-0.0312l-0.1999-0.163c0.0151-2e-3 0.0309-0.0048 0.046-0.0068l0.1649 0.133c0.0091 0.0079 0.023 0.0059 0.0301-0.0032 0.0079-9e-3 0.0071-0.0229-0.0031-0.0309l-0.135-0.1091c0.0151-0.0028 0.0301-0.0059 0.0451-0.0088l0.1001 0.0808c0.0099 0.0082 0.0238 0.0062 0.0309-0.0028 0.0079-0.0091 0.0059-0.023-0.0032-0.0312l-0.0728-0.059c0.015-0.0028 0.0289-0.0059 0.0431-0.0099l0.0439 0.036c0.0099 0.0079 0.023 6e-3 0.0309-0.0031 8e-3 -0.0088 6e-3 -0.023-0.0028-0.0309z" fill="#fff"/><path d="m88.734 67.726c0.0071 0.0341 0.0099 0.065 0.0071 0.0859-0.0332 0.2322-0.1591 0.296-0.1591 0.296l-0.267-0.383c0.021 0.0011 0.044 0.0011 0.07 2e-3l0.1469 0.2202c0.0071 0.01 0.0209 0.0119 0.0312 6e-3 0.0099-0.0071 0.013-0.021 0.0059-0.0312l-0.131-0.1939c0.0139 0 0.0278 9e-4 0.0428 9e-4l0.108 0.161c0.0071 0.0102 0.021 0.013 0.0312 0.0062 0.0099-0.0071 0.0119-0.021 6e-3 -0.0312l-0.0921-0.136h0.0422l0.0697 0.104c0.0071 0.0102 0.0213 0.013 0.0312 0.0062 0.0099-7e-3 0.0119-0.0201 6e-3 -0.03l-0.0539-0.0802c0.0337-9e-4 0.0689-2e-3 0.1049-0.0029" fill="#fff"/><path d="m89.255 66.83c-0.0332-0.0091-0.0601-0.015-0.076-0.019l0.3988-0.3141s0.0031 0.1219 0.093 0.2571c0.0091 0.0139 0.0181 0.027 0.0269 0.038 0.0423 0.053 0.0451 0.125 0.0131 0.18-0.042-0.017-0.0859-0.0331-0.1318-0.0482l0.0408-0.0328c9e-3 -0.0071 0.011-0.021 0.0031-0.0312-0.0079-0.0088-0.021-0.01-0.0309-0.0029l-0.0621 0.0511c-0.013-4e-3 -0.0249-8e-3 -0.0371-0.0111l0.085-0.07c0.0099-0.0071 0.0111-0.021 0.0031-0.0309-7e-3 -0.0091-0.0209-0.0102-0.0311-0.0031l-0.108 0.0881c-0.0139-0.0042-0.0278-0.0082-0.0409-0.011l0.1389-0.114c0.01-0.0071 0.0111-0.0212 4e-3 -0.0312-0.0079-9e-3 -0.0218-0.0099-0.0309-0.0028l-0.1641 0.133c-0.0139-4e-3 -0.0281-8e-3 -0.0408-0.0111l0.195-0.159c0.0088-0.0071 0.0099-0.021 0.0028-0.0301-0.0079-0.0099-0.0218-0.011-0.0309-0.0039z" fill="#fff"/><path d="m88.403 66.414-0.1522 0.2531c-8e-4 2e-3 -8e-4 4e-3 -2e-3 6e-3h-0.0348c-0.017 0-0.0329 0-0.0471 0.0011l0.2449-0.3912s0.072 0.0411 0.1463 0.106c0.0159 0.0142 0.0278 0.0281 0.038 0.0431 0.0348 0.053 0.0348 0.1219 8e-4 0.176l-0.055 0.0831c-0.0229-2e-3 -0.045-4e-3 -0.066-6e-3l0.0842-0.1411c0.0059-0.0111 0.0028-0.0241-0.0071-0.0301-0.0111-0.0059-0.0241-0.0028-0.0301 0.0071l-0.096 0.1599c-0.0139-9e-4 -0.027-2e-3 -0.0389-2e-3l0.112-0.1888c0.0071-0.0102 0.0028-0.0241-0.0071-0.03-0.0111-6e-3 -0.0238-0.0031-0.03 0.0079l-0.1251 0.2081c-0.0138-0.0012-0.0269-0.0012-0.0399-2e-3l0.1431-0.2381c6e-3 -0.0099 2e-3 -0.023-0.0079-0.0301-0.0102-0.0059-0.0241-2e-3 -0.0301 8e-3" fill="#fff"/><path d="m86.911 67.296c-0.0289 0-0.0519-0.023-0.0519-0.0519 0-0.0281 0.023-0.051 0.0519-0.051s0.0518 0.0229 0.0518 0.051c0 0.0289-0.0229 0.0519-0.0518 0.0519" fill="#fff"/><path d="m89.751 67.048c0.0031 0.0011 0.0071 2e-3 0.0119 2e-3 0.0961 0.0249 0.2021 0.0391 0.3152 0.0391 0.044 0 0.0871-0.0031 0.129-0.0071 0.0349 0.0629 0.053 0.1281 0.053 0.1939v2e-3c0 0.066-0.0181 0.1301-0.053 0.193-0.0419-0.0048-0.085-0.0068-0.129-0.0068-0.1119 0-0.2191 0.0139-0.3152 0.038-0.0048 8e-4 -0.0088 2e-3 -0.0127 0.0028-0.0063 2e-3 -0.0122 4e-3 -0.0182 6e-3 -0.0198 0.0062-0.0399 0.0122-0.0578 0.019-0.284 0.0881-0.72 0.1411-1.1701 0.1411-0.8391 0-1.986-0.263-1.986-0.4711 0 0 0-0.0368 0.0269-0.0779 6e-3 -0.0091 0.0131-0.0179 0.0221-0.027 0.038 0.0071 0.0769 0.019 0.114 0.036 0.0028 9e-4 0.0051 2e-3 0.0079 0.0029 0.0162 0.0082 0.036 0.0011 0.044-0.0159 0.0071-0.017 0-0.036-0.0159-0.0431-0.0031-2e-3 -6e-3 -0.0028-0.0091-4e-3 -0.0241-0.0119-0.049-0.0209-0.074-0.028-0.0019-9e-4 -0.0039-9e-4 -0.0059-2e-3 0.0071-0.0048 0.015-0.0108 0.0241-0.0159 0.129-0.085 0.3509-0.165 0.6607-0.2191 0.0763 0.087 0.1231 0.2001 0.1231 0.3251v0.0091c0 0.0179 0.0141 0.0329 0.0331 0.0329 0.0179 0 0.0329-0.0139 0.0329-0.032v-0.01c0-0.127-0.0431-0.244-0.1139-0.3379 0.2429-0.0382 0.5349-0.0612 0.875-0.0612 0.415 0 1.059 0.159 1.3419 0.2642 0.0411 0.0179 0.0859 0.034 0.133 0.0479 0.0051 0.0011 9e-3 0.0031 0.013 4e-3zm-2.8199 0.0751c-0.0561 0-0.102 0.0448-0.102 0.102 0 0.0559 0.0459 0.1018 0.102 0.1018 0.057 0 0.1029-0.0459 0.1029-0.1018 0-0.0572-0.0459-0.102-0.1029-0.102zm0.6868 0.2268c0.0012 0.0011 0.0032 0.0022 0.0051 0.0031l0.0352 0.0099h8e-4l0.2481 0.072c0.0119 0.0031 0.0241-0.0028 0.0269-0.015 0.0031-0.0119-0.0028-0.0238-0.015-0.0269l-0.2529-0.074h-0.0011l-0.0179-0.0051c-0.0082 0.013-0.0181 0.0252-0.0292 0.036zm0.3232-0.01c4e-3 -0.0119-0.0031-0.0238-0.015-0.0269l-0.2481-0.072c-0.0031 0.0139-0.0079 0.0281-0.0138 0.042l0.25 0.072c0.0119 0.0031 0.0238-0.0029 0.0269-0.0151zm0.0261-0.356h-0.0641c-0.0249 0-0.0451 0.0201-0.0451 0.0442 0 0.025 0.0202 0.0448 0.0451 0.0448h0.0641c0.0249 0 0.0448-0.0198 0.0448-0.0448 0-0.0241-0.0199-0.0442-0.0448-0.0442zm0.2208-0.087h-0.0641c-0.0249 0-0.0448 0.0201-0.0448 0.0451 0 0.0249 0.0199 0.045 0.0448 0.045h0.0641c0.0249 0 0.0451-0.0201 0.0451-0.045 0-0.025-0.0202-0.0451-0.0451-0.0451zm0 0.1732h-0.0641c-0.0249 0-0.0448 0.0198-0.0448 0.0448 0 0.0252 0.0199 0.045 0.0448 0.045h0.0641c0.0249 0 0.0451-0.0198 0.0451-0.045 0-0.025-0.0202-0.0448-0.0451-0.0448zm-0.2588 0.102c-0.036-0.0371-0.0842-0.0572-0.1341-0.0572-0.0241 0-0.0482 0.0051-0.072 0.015l-0.053 0.0232c-0.013 0.0049-0.019 0.0199-0.013 0.0318 0.0051 0.013 0.019 0.019 0.032 0.013l0.0539-0.0229c0.051-0.021 0.1119-0.0091 0.1502 0.0309 0.091 0.0941 0.239 0.248 0.3339 0.3512l-0.633-0.1761c-0.013-0.0039-0.0272 4e-3 -0.03 0.0171-4e-3 0.013 4e-3 0.026 0.017 0.03l0.7149 0.199c0.0102 0.0028 0.0221-0.0011 0.0269-0.0102 0.0063-0.0088 0.0051-0.021-2e-3 -0.0298-0.0788-0.089-0.2789-0.2982-0.3917-0.415zm0.4839-0.1882h-0.0649c-0.0253 0-0.0451 0.0201-0.0451 0.0442 0 0.025 0.0198 0.0448 0.0451 0.0448h0.0649c0.0241 0 0.0439-0.0198 0.0439-0.0448 0-0.0241-0.0198-0.0442-0.0439-0.0442zm0 0.1732h-0.0649c-0.0253 0-0.0451 0.0199-0.0451 0.0448 0 0.0241 0.0198 0.0442 0.0451 0.0442h0.0649c0.0241 0 0.0439-0.0201 0.0439-0.0442 0-0.0249-0.0198-0.0448-0.0439-0.0448zm0.2239-0.2602h-0.0649c-0.0241 0-0.0439 0.0201-0.0439 0.0451 0 0.0249 0.0198 0.045 0.0439 0.045h0.0649c0.0249 0 0.0451-0.0201 0.0451-0.045 0-0.025-0.0202-0.0451-0.0451-0.0451zm0 0.1732h-0.0649c-0.0241 0-0.0439 0.0198-0.0439 0.0448 0 0.0252 0.0198 0.045 0.0439 0.045h0.0649c0.0249 0 0.0451-0.0198 0.0451-0.045 0-0.025-0.0202-0.0448-0.0451-0.0448zm0 0.174h-0.0649c-0.0241 0-0.0439 0.0199-0.0439 0.044 0 0.0249 0.0198 0.045 0.0439 0.045h0.0649c0.0249 0 0.0451-0.0201 0.0451-0.045 0-0.0241-0.0202-0.044-0.0451-0.044zm0.2239-0.2602h-0.0637c-0.0253 0-0.0451 0.0201-0.0451 0.0442 0 0.025 0.0198 0.0448 0.0451 0.0448h0.0637c0.0253 0 0.0451-0.0198 0.0451-0.0448 0-0.0241-0.0198-0.0442-0.0451-0.0442zm0 0.1732h-0.0637c-0.0253 0-0.0451 0.0199-0.0451 0.0448 0 0.0241 0.0198 0.0442 0.0451 0.0442h0.0637c0.0253 0 0.0451-0.0201 0.0451-0.0442 0-0.0249-0.0198-0.0448-0.0451-0.0448zm0.2251-0.087h-0.0649c-0.0241 0-0.0439 0.0198-0.0439 0.0448 0 0.0252 0.0198 0.045 0.0439 0.045h0.0649c0.025 0 0.0439-0.0198 0.0439-0.045 0-0.025-0.0189-0.0448-0.0439-0.0448zm0 0.174h-0.0649c-0.0241 0-0.0439 0.0199-0.0439 0.044 0 0.0249 0.0198 0.045 0.0439 0.045h0.0649c0.025 0 0.0439-0.0201 0.0439-0.045 0-0.0241-0.0189-0.044-0.0439-0.044zm0.2239-0.087h-0.0637c-0.0253 0-0.0451 0.0199-0.0451 0.0448 0 0.0241 0.0198 0.0442 0.0451 0.0442h0.0637c0.0253 0 0.0451-0.0201 0.0451-0.0442 0-0.0249-0.0198-0.0448-0.0451-0.0448" fill="#fff"/><path d="m89.639 74.071 1.3312-0.9669c0.042-0.0309 0.0629-0.095 0.0471-0.1451l-0.5091-1.5648c-0.0159-0.049 0.0059-0.064 0.0479-0.034l1.33 0.9669c0.0431 0.0309 0.1111 0.0309 0.153 0l1.3312-0.9669c0.0419-0.03 0.0629-0.015 0.0468 0.034l-0.508 1.5648c-0.0159 0.0501 4e-3 0.1142 0.0471 0.1451l1.3308 0.9669c0.0423 0.03 0.034 0.055-0.0178 0.055h-1.645c-0.0521 0-0.108 0.0402-0.1241 0.0901l-0.508 1.5639c-0.0159 0.0502-0.042 0.0502-0.0578 0l-0.508-1.5639c-0.017-0.0499-0.072-0.0901-0.1242-0.0901h-1.6449c-0.0522 0-0.0601-0.025-0.0182-0.055" fill="#fff"/><path d="m104.28 58.806c-0.0272 0.1681-0.1222 0.3011-0.2472 0.368v0.0011c0.0711 0.18 0.2531 0.1919 0.3861 0.275-0.1642-0.0499-0.2911-0.0199-0.476-0.15 0.0159 0.0681 0.019 0.1409 7e-3 0.2149-0.0439 0.271-0.2698 0.449-0.5059 0.398-0.0808-0.0179-0.1528-0.0598-0.2109-0.1199-0.0681 0.21-0.197 0.35-0.3782 0.3401 0.1151-2e-3 0.2892-0.269 0.0763-0.3291-0.288-0.0819-0.4751-0.4079-0.4213-0.7461 0.0301-0.1868 0.1282-0.3398 0.2583-0.432 0.0519-0.036 0.0799-0.0969 0.0278-0.1539 0 0-0.3399-0.176-0.6279-0.6199 0.03 0.1049 0.0589 0.2089 0.085 0.3118 0 0 0.159 0.8252 0.15 1.8 0.074 0.214 0.2148 0.5831 0.3608 0.7852 0.0593 0.07 0.1242 0.125 0.2121 0.1168 0.081-0.0068 0.1431-0.027 0.2021-0.0468 0.2001-0.0711 0.4371-0.089 0.625 0.036 0.18 0.1188 0.2781 0.364 0.2259 0.6058-0.0198 0.0972-0.0629 0.1822-0.119 0.2491 0.034 0.1049 0.0419 0.222 0.017 0.3391-0.0649 0.307-0.3359 0.494-0.6029 0.4169-0.091-0.0249-0.169-0.0779-0.2311-0.1479-0.0961 0.0399-0.2021 0.049-0.3089 0.019-0.2339-0.0672-0.3929-0.3031-0.402-0.5661-5e-3 -0.144 0.0388-0.2991 0.106-0.419 0.0388-0.07 0.0879-0.1329 0.1449-0.197 0.091-0.1009 0.1621-0.18 0.081-0.3231-8e-3 -0.0159-0.0178-0.029-0.028-0.044 0 0-0.1678-0.227-0.29-0.559-7e-3 0.1701-0.0199 0.343-0.04 0.5151-0.0728 0.4909-0.0791 0.9519-0.0499 1.4451 0.021 0.3668 9e-3 0.5289 0.1809 0.843 0.036 0.0649 0.0751 0.1219 0.1182 0.1568 0.0468 0.0391 0.0958 0.0351 0.1088-0.0369 0.057-0.3169 0.324-0.523 0.603-0.4629 0.066 0.0139 0.1261 0.042 0.18 0.08 0.1681 0.121 0.4461 0.195 0.4861-0.112 0.023 0.2078-0.1261 0.3988-0.284 0.381 0.2401 0.0538 0.398 0.32 0.354 0.5958-0.0241 0.15-0.1051 0.269-0.21 0.3422-0.0119 0.0099-0.025 0.0178-0.0372 0.0269 0.0712 0.18 0.2532 0.1919 0.3853 0.2749-0.1642-0.0498-0.29-0.0198-0.4751-0.1499 0.0159 0.0731 0.019 0.1511 4e-3 0.2299-0.042 0.225-0.2212 0.3841-0.415 0.39-0.0341 2e-3 -0.0681 2e-3 -0.1029-0.0039-0.0783-0.0151-0.146-0.0531-0.2041-0.1049-0.07 0.199-0.1951 0.3308-0.3711 0.322 0.1159-2e-3 0.2891-0.269 0.076-0.3291-0.288-0.0819-0.474-0.4079-0.4198-0.7461 0.0297-0.1868 0.127-0.3399 0.2579-0.432 0.0519-0.036 0.08-0.0978 0.027-0.1539-0.061-0.0649-0.1092-0.1559-0.15-0.231-0.0451-0.0811-0.0831-0.1429-0.125-0.1389-0.0439 0.2928-0.1222 0.5918-0.1551 0.8889-0.0209 0.184-0.028 0.3739-0.0119 0.6061 8e-3 0.1199 0.0179 0.2318 0.0321 0.3619 3e-3 0.0261 6e-3 0.0499 9e-3 0.076 0.0111 0.0159 0.0491 0.072 0.0613 0.097 0 0 0.0507 0.108 0.1397 0.17 0 0-0.0969-0.14-0.1168-0.2001 0.398-0.0748 0.3549 0.4 0.3549 0.4-0.3968 0.0521-0.3849-0.3478-0.3849-0.3478s-0.021-0.0491-0.0471-0.061c0.0119 0.1018 0.025 0.2018 0.0329 0.3019 0.015 0.1959 0.0593 0.3399 0.176 0.4561l0.1092 0.125c0.0589 0.07 0.1239 0.1239 0.212 0.1168 0.0819-0.0068 0.144-0.0269 0.203-0.0468 0.1998-0.0711 0.4359-0.089 0.625 0.036 0.1789 0.1188 0.277 0.3629 0.2259 0.6058-0.0209 0.0972-0.064 0.182-0.1199 0.2492 0 0 0.01 0.0399 0.0179 0.098 9e-3 0.0508 0.0102 0.1018 6e-3 0.1548 0 4e-3 -8e-4 0.0082-8e-4 0.013-2e-3 0.0241 0 0.0482-6e-3 0.0732-0.0652 0.307-0.335 0.4938-0.6032 0.417-0.0898-0.0261-0.1689-0.078-0.2307-0.148-0.0953 0.04-0.2021 0.049-0.3081 0.019-0.2342-0.0672-0.3929-0.303-0.4031-0.5661-5e-3 -0.144 0.0391-0.2991 0.106-0.419 0.04-0.07 0.0881-0.134 0.146-0.1981 0.0901-0.1009 0.1621-0.1789 0.081-0.3229-9e-3 -0.015-0.0189-0.0289-0.0289-0.0431l-0.0581-0.0739c-0.053-0.0471-0.1029-0.1041-0.1479-0.1829-0.0202 0.368-0.1571 0.7118-0.237 1.0758-0.0451 0.2061-0.0732 0.409-0.0941 0.6622-2e-3 0.0249-4e-3 0.0498-6e-3 0.0748-4e-3 0.0751-6e-3 0.1502 3e-3 0.2151 0.0111 0.076 0.038 0.1449 0.093 0.252 0.1001 0.197 0.1721 0.4561 0.0388 0.701 0.0993-0.2531 0.0111-0.422-0.0949-0.629-0.0289-0.0589-0.0629-0.1131-0.0819-0.17-0.0392 0.195-0.131 0.3651-0.2311 0.5249-0.019 0.0292-0.0368 0.0601-0.0558 0.091-0.0142 0.023 0.0159 0.0641 0.0159 0.0641s0.216 0.093 0.0771 0.379c0 0-0.2642-0.089-0.1131-0.3691 0.0269 0.0301 0.0728 0.1381 0.0728 0.1381-7e-3 -0.082-0.0499-0.148-0.0499-0.148-5e-3 -0.0079-0.013-0.023-0.0198-0.0369-0.0102 0.0168-0.0213 0.0329-0.0312 0.0508-0.032 0.0561-0.0669 0.1341-0.0879 0.2072-0.0331 0.1088-0.0229 0.131 0.0321 0.2239 0.0779 0.1341 0.0898 0.3589 0.0198 0.584-0.0969 0.3109-0.3161 0.504-0.489 0.432s-0.235-0.3819-0.138-0.6931c0.0731-0.231 0.212-0.3969 0.3501-0.4368 0.1048-0.0312 0.121-0.0292 0.1669-0.1471 0.0542-0.137 0.131-0.26 0.2041-0.3771 0.0269-0.043 0.0451-0.0858 0.0661-0.1289-0.021 0.0071-0.0423 0.0289-0.0423 0.0289s-0.0827 0.305-0.3948 0.1301c0 0 0.0759-0.3719 0.3821-0.1789-0.0301 0.0389-0.1412 0.11-0.1412 0.11 0.0862-0.0161 0.1531-0.0791 0.1531-0.0791 0.0119-0.0119 0.0431-0.0331 0.0621-0.0459 0.0498-0.1071 0.0918-0.2171 0.1167-0.3472 0.0222-0.112 0.0352-0.2288 0.0443-0.349 8e-4 -0.0249 3e-3 -0.0499 5e-3 -0.0748 5e-3 -0.076 0.0102-0.1491 0.0161-0.222 0.025-0.2891 0.078-0.5391 0.1528-0.8161 0.0272-0.102 0.051-0.206 0.0712-0.3129 0 0-0.0941 0.305-0.4289 0.6389-0.0661 0.0661-0.0921 0.1579-0.0312 0.2461 0.0989 0.1428 0.1301 0.341 0.0672 0.523-0.0581 0.1658-0.1811 0.2789-0.322 0.3169-0.1202 0.032-0.1562 0.25-0.051 0.335-0.1131-0.064-0.1602-0.182-0.1523-0.303-0.1068 0.123-0.271 0.1681-0.4209 0.0989-0.1219-0.0558-0.205-0.174-0.235-0.3098-0.0578-0.0082-0.1171-0.03-0.1729-0.0652-0.1919-0.123-0.288-0.3909-0.2259-0.633 0.0218-0.0859 0.0637-0.157 0.1128-0.2168 0.0122-0.021 0.021-0.0411 0.034-0.0632 0 0-6e-3 -0.0349-7e-3 -0.0868-3e-3 -0.0691 8e-4 -0.1392 0.0249-0.208 0.0661-0.1891 0.224-0.3042 0.3909-0.3042-2e-3 -0.1369 0.0431-0.2789 0.146-0.343-0.0759 0.093-0.0368 0.277 0.0669 0.3161 6e-3 -2e-3 0.0122-0.0031 0.0182-4e-3 0.0898-0.0329 0.189-0.0329 0.2829 0.0099 0.108 0.0502 0.1882 0.146 0.229 0.2611 0.021 0.0581 0.0371 0.1329 0.0371 0.197 0 0.1349 0.093 0.182 0.1951 0.125-0.0162 0.0269 0.1689-0.1839 0.2817-0.4059 0.1012-0.197 0.1902-0.409 0.2021-0.614 8e-3 -0.1241-4e-3 -0.25-0.019-0.375-0.0368 0.0079-0.0609 0.0879-0.0609 0.0879s0.0601 0.5099-0.4292 0.498c0 0-0.1068-0.6021 0.3853-0.5601-0.0162 0.0791-0.1183 0.271-0.1183 0.271 0.1012-0.091 0.1511-0.2359 0.1511-0.2359 0.0119-0.034 0.0522-0.1131 0.063-0.134-0.01-0.074-0.0199-0.148-0.0278-0.2209-0.0233-0.206-0.0431-0.339-0.0522-0.504-0.01-0.2032-7e-3 -0.3421 0.0139-0.5411-0.1068 0.2801-0.3047 0.4201-0.3047 0.4201-0.1792 0.1429-0.2183 0.275-0.0921 0.4589 0.053 0.078 0.1329 0.135 0.216 0.1409-0.0771 0.017-0.152-0.0068-0.2021-0.04 0.013 0.0701 0.015 0.1452 3e-3 0.22-0.051 0.3042-0.3169 0.4992-0.593 0.4371-0.055-0.0119-0.106-0.034-0.152-0.0621-0.0431 0.0091-0.089 0.0102-0.1352 0-0.1278-0.0289-0.2268-0.1349-0.2647-0.269h-1e-3c-0.142-0.0289-0.2528-0.1669-0.2599-0.3328-3e-3 -0.0612 7e-3 -0.1182 0.0261-0.1681-0.0882-0.1031-0.1313-0.252-0.106-0.403 0.017-0.1029 0.0629-0.19 0.1269-0.254 9e-4 -0.0071 2e-3 -0.0139 3e-3 -0.021 0.013-0.078 0.0399-0.1491 0.0759-0.212 2e-3 -4e-3 4e-3 -8e-3 6e-3 -0.0119 8e-4 -0.0012 8e-4 -2e-3 2e-3 -2e-3 0.01-0.0202 0.0218-0.04 0.036-0.0581 0.0209-0.0301 0.053-0.0579 0.0878-0.0839 0.1219-0.1012 0.2801-0.148 0.4431-0.1112 0.2259 0.0502 0.3798 0.2481 0.4431 0.476 0.0428 0.1542 0.07 0.248 0.1879 0.2321 0.055-0.0071 0.106-0.0371 0.1468-0.0779 0.0822-0.0811 0.2211-0.2551 0.3101-0.565 0.0309-0.106 0.074-0.242 0.099-0.388 0.0311-0.178 0.045-0.341 0.049-0.506-0.0329 0.017-0.053 0.085-0.053 0.085s0.0601 0.51-0.4289 0.4989c0 0-0.1071-0.6021 0.385-0.5609-0.0159 0.0799-0.118 0.2718-0.118 0.2718 0.101-0.091 0.15-0.2358 0.15-0.2358 0.013-0.036 0.057-0.1222 0.0649-0.137 0-0.0992-3e-3 -0.1992-0.0119-0.3061-0.0269-0.3229-0.0261-0.661-4e-3 -0.9899-0.0961 0.1868-0.2409 0.3419-0.2409 0.3419-0.0593 0.074-0.091 0.1579-0.0312 0.246 0.0989 0.1429 0.131 0.3419 0.068 0.523-0.0581 0.1659-0.1808 0.279-0.322 0.3169-0.121 0.0321-0.1559 0.2501-0.0519 0.3351-0.1119-0.0641-0.159-0.182-0.151-0.303-0.1069 0.123-0.2722 0.1681-0.421 0.0989-0.1222-0.0558-0.2061-0.174-0.235-0.3098-0.0391-6e-3 -0.0791-0.017-0.1182-0.0352-0.2449-0.1128-0.364-0.432-0.2659-0.712 0.0301-0.0868 0.0771-0.1599 0.135-0.216 0 0-3e-3 -0.0219-5e-3 -0.0508-0.0122-0.085-0.0102-0.1732 0.0199-0.2591 0.0652-0.189 0.2239-0.3041 0.3912-0.3041-2e-3 -0.1369 0.0419-0.2789 0.1459-0.3419-0.0771 0.093-0.0379 0.2801 0.0689 0.3161 0.093-0.0391 0.199-0.0411 0.2991 0.0048 0.108 0.0502 0.1879 0.146 0.229 0.2611 0.021 0.0581 0.0369 0.1329 0.0369 0.197-9e-4 0.1349 0.0822 0.2041 0.1669 0.1179 0.2832-0.2888 0.3521-0.8609 0.3592-0.9178 7e-3 -0.0692 0.013-0.1562 0.0178-0.2552-0.0249 0.025-0.0408 0.0791-0.0408 0.0791s0.061 0.51-0.4291 0.4989c0 0-0.1061-0.6018 0.386-0.561-0.0158 0.0791-0.1179 0.271-0.1179 0.271 0.1009-0.091 0.15-0.2358 0.15-0.2358 0.01-0.0272 0.038-0.0842 0.055-0.1171 0.0119-0.3299 1e-3 -0.8039-0.0851-1.4221-0.032 0.1292-0.0879 0.261-0.182 0.3532-0.1618 0.1559-0.2179 0.2749-0.0918 0.4589 0.0527 0.078 0.1329 0.1349 0.216 0.1409-0.0771 0.017-0.1522-0.0068-0.2033-0.04 0.0142 0.0712 0.0162 0.1452 3e-3 0.22-0.0511 0.3041-0.3161 0.4992-0.593 0.4371-0.0542-0.0119-0.1049-0.034-0.1511-0.0621-0.0428 0.0102-0.089 0.0102-0.135 0-0.1289-0.0289-0.227-0.1349-0.2658-0.269h-1e-3c-0.142-0.0289-0.252-0.167-0.2591-0.3319-3e-3 -0.0621 7e-3 -0.1191 0.0261-0.169-0.0879-0.1029-0.1321-0.2511-0.106-0.4031 0.017-0.1029 0.0629-0.1899 0.127-0.254 1e-3 -7e-3 2e-3 -0.0138 3e-3 -0.0209 0.0558-0.3331 0.347-0.548 0.6508-0.4791 0.2251 0.051 0.3932 0.2441 0.4431 0.4762 0.019 0.0899 0.0439 0.2138 0.1431 0.2299 0.0599 0.0091 0.1188-0.0261 0.154-0.0819 0.0601-0.0961 0.153-0.299 0.153-0.6321-0.1859-0.9819-0.57-1.819-0.854-2.4449 0.1131 0.0448 0.227 0.0918 0.335 0.1378 0.0938 0.2352 0.201 0.5142 0.3169 0.8382l0.178 0.5159s0.2971 0.686 0.7861 0.9629c0.051 0.03 0.0961 0.0352 0.1088-0.0368 0.0562-0.317 0.324-0.5242 0.6021-0.4641 0.0661 0.015 0.127 0.0431 0.18 0.0811 0.1681 0.121 0.4462 0.195 0.4862-0.112 0.0218 0.188-0.0981 0.3609-0.2393 0.379 0.0391 0.019 0.0751 0.044 0.108 0.0729 0.1491 0.108 0.2353 0.3129 0.2013 0.5249zm-1.582 2.5212c-0.1001 0.07-0.1781 0.1848-0.2081 0.3288-0.0601 0.2801 0.0811 0.5601 0.3141 0.627 0.233 0.0661 0.4708-0.1068 0.5298-0.3858 0.013-0.0601 0.017-0.1222 0.0122-0.1831 0.0399 0.032 0.0859 0.057 0.1357 0.0709 0.2223 0.0632 0.4462-0.0919 0.5001-0.3459 0.0541-0.2539-0.0819-0.511-0.3031-0.574-0.1578-0.045-0.3157 0.0199-0.4138 0.1531 0.2129 0.0828 0.3379 0.301 0.339 0.504-0.0391-0.0992-0.093-0.1811-0.157-0.2432-0.4011-0.3898-0.5261 0.102-0.256 0.4411-0.161-0.101-0.2611-0.3079-0.265-0.4641-0.1761 0.0882-0.2809 0.4901-0.218 0.7121-0.0989-0.1899-0.078-0.447-0.01-0.6409zm0.6369 2.5529c0.1468-0.0119 0.307 0.2111 0.307 0.2111-0.0799-0.265-0.2191-0.2792-0.2191-0.2792 0.3679-0.265 0.1859-0.6599 0.1859-0.6599 0.1052 0.5431-0.4107 0.6239-0.4107 0.6239 0.163 0.4921-0.1843 0.7472-0.1843 0.7472 0.4142-0.246 0.3212-0.6431 0.3212-0.6431zm-0.9091 2.5021c-0.1 0.07-0.178 0.1848-0.208 0.3288-0.0598 0.2801 0.081 0.5601 0.3141 0.627 0.233 0.0661 0.4711-0.1068 0.5309-0.386 0.0122-0.0598 0.0161-0.1219 0.011-0.1829 0.04 0.0321 0.0859 0.057 0.1369 0.0709 0.2212 0.0632 0.4451-0.0918 0.4992-0.3458 0.0539-0.254-0.081-0.5111-0.303-0.574-0.157-0.0451-0.3161 0.0198-0.4141 0.153 0.2131 0.0828 0.3381 0.3008 0.339 0.504-0.0388-0.0992-0.093-0.1811-0.1571-0.2432-0.4008-0.39-0.5258 0.1021-0.2559 0.4411-0.161-0.1009-0.2608-0.3079-0.2639-0.4641-0.1769 0.0882-0.2821 0.4902-0.2191 0.711-0.099-0.1888-0.0769-0.4459-0.01-0.6398zm-1.08 2.6779c3e-3 0.1579-0.0669 0.3421-0.2041 0.43 0.11-0.0961 0.1732-0.2869 0.1282-0.4479-0.0581 0.095-0.1231 0.133-0.2121 0.1919-0.0391 0.0261-0.0751 0.0559-0.1048 0.0919-0.1012 0.1182-0.1503 0.286-0.091 0.445 0.0277 0.0542 0.0657 0.095 0.1139 0.114 0.144 0.0601 0.3229-0.0828 0.419-0.324 0.0601-0.2208 0.0499-0.3929-0.0491-0.5009zm-0.371-2.2779c-0.5519-0.1812-0.2809-0.707-0.2809-0.707-0.2931 0.4918-0.0329 0.6849-0.0329 0.6849-0.2373 0.0949-0.3841-0.1639-0.3841-0.1639 0.1179 0.3368 0.379 0.3478 0.379 0.3478-0.2259 0.1792-0.165 0.4601-0.165 0.4601 0.0388-0.3141 0.229-0.3441 0.229-0.3441 7e-3 0.6111 0.4559 0.5771 0.4559 0.5771-0.631-0.2619-0.201-0.8549-0.201-0.8549zm-0.519-1.749c-0.01-0.0522-0.0108-0.1072-2e-3 -0.163 0.0102-0.0612 0.032-0.1162 0.0621-0.1621-0.0261 0-0.0519-0.0029-0.078-0.0091-0.0692-0.015-0.1301-0.0499-0.1792-0.0978-7e-3 0.019-0.0119 0.038-0.0158 0.059-0.0281 0.17 0.0669 0.335 0.2129 0.373zm-0.2098-1.0471c-0.0451 0.051-0.0771 0.117-0.0901 0.1939-0.0341 0.2012 0.081 0.396 0.2571 0.4362 0.0688 0.015 0.1369 4e-3 0.197-0.0272-0.2243-0.0958-0.3711-0.3399-0.364-0.6029zm0.2497 0.9161c-0.0297 0.1758 0.0712 0.347 0.2251 0.3819 0.0261 0.0059 0.051 7e-3 0.076 0.0051-0.1449-0.127-0.2228-0.3362-0.188-0.548 3e-3 -0.017 7e-3 -0.034 0.0111-0.0502-0.0629 0.046-0.1092 0.1211-0.1242 0.2112zm0.8802-0.6432s-0.078-0.392-0.2852-0.551c0 0 0.0941 0.1001 0.1301 0.3121-0.1919-0.1219-0.5009-0.0539-0.5009-0.0539s0.4649 0.0048 0.5259 0.3819c0.0621 0.377-0.368 0.5921-0.368 0.5921s0.3711-0.0201 0.4672-0.4411c0.0238 0.0451 0.0768 0.1259 0.1828 0.1919 0 0-0.102-0.142-0.1519-0.432zm-0.1262-2.5168c-0.5519-0.1812-0.2809-0.707-0.2809-0.707-0.2931 0.4918-0.0329 0.6849-0.0329 0.6849-0.2369 0.0949-0.384-0.163-0.384-0.163 0.1179 0.3359 0.3789 0.3469 0.3789 0.3469-0.2259 0.1792-0.1649 0.4601-0.1649 0.4601 0.0391-0.3141 0.229-0.3441 0.229-0.3441 7e-3 0.6111 0.4558 0.5771 0.4558 0.5771-0.631-0.2619-0.201-0.8549-0.201-0.8549zm-0.5218-1.7632c-0.01-0.053-0.0111-0.108-2e-3 -0.1638 0.01-0.061 0.032-0.1151 0.0621-0.1622-0.0261 0-0.0522-0.0028-0.0791-9e-3 -0.068-0.0148-0.129-0.0499-0.1792-0.0978-6e-3 0.019-0.0107 0.0388-0.015 0.0589-0.0278 0.171 0.0672 0.3359 0.2132 0.3739zm-0.2101-1.048c-0.045 0.0511-0.0779 0.1171-0.0898 0.1942-0.034 0.201 0.0808 0.396 0.2559 0.436 0.0701 0.0159 0.1381 0.0048 0.1971-0.0272-0.2231-0.0958-0.3711-0.3388-0.3632-0.603zm0.2501 0.9162c-0.0301 0.1769 0.0708 0.3478 0.2239 0.3818 0.0261 6e-3 0.0521 8e-3 0.0771 0.0051-0.1451-0.127-0.2231-0.3359-0.1879-0.5479 3e-3 -0.017 6e-3 -0.034 0.0107-0.0502-0.0629 0.0462-0.1088 0.1211-0.1238 0.2112zm0.8909-0.6211s-0.078-0.3931-0.2849-0.5519c0 0 0.0938 0.1009 0.1298 0.313-0.1919-0.123-0.5009-0.055-0.5009-0.055s0.4649 0.0048 0.527 0.3818c0.0609 0.377-0.3691 0.5922-0.3691 0.5922s0.3711-0.0202 0.4672-0.4411c0.0241 0.0451 0.0771 0.127 0.1828 0.1919 0 0-0.1009-0.142-0.1519-0.4309zm2.1849-0.9241c0.1041 0.542-0.4107 0.6231-0.4107 0.6231 0.163 0.4921-0.1843 0.7481-0.1843 0.7481 0.4142-0.2461 0.3212-0.6441 0.3212-0.6441 0.1468-0.011 0.307 0.2121 0.307 0.2121-0.0799-0.2662-0.2191-0.2801-0.2191-0.2801 0.3682-0.265 0.1859-0.6591 0.1859-0.6591" fill="#fff"/><path d="m80.483 66.86c0.1661-0.226 0.3401-0.567 0.4991-0.98 0.0539 0.0938 0.1069 0.161 0.1579 0.199 0.0151 0.0119 0.038 0.017 0.072 0.017-0.1559 0.419-0.369 0.7529-0.64 0.925-0.0409 0.026-0.1639 0.0598-0.3019 0.0708 0.0689-0.055 0.14-0.1329 0.2129-0.2318" fill="#fff"/><path d="m81.165 65.353c0.1051-0.337 0.297-0.9348 0.3702-1.315-0.0372 0.527-0.182 1.2291-0.2291 1.533-0.045-0.0669-0.0929-0.1409-0.1411-0.218" fill="#fff"/><path d="m81.803 65.148c-0.0099-0.1622-0.0147-0.322-0.017-0.4791 0.0641 0.216 0.1381 0.4249 0.2183 0.6239 0.3138 1.1021 0.8059 2.0801 1.2047 2.5611 0.1171 0.142 0.2271 0.243 0.3283 0.305-0.0292 2e-3 -0.2602-0.0629-0.3101-0.0799-0.7481-0.248-1.192-1.6852-1.4242-2.931" fill="#fff"/><path d="m81.742 64.285c0 0.0709-0.0111 0.5559-0.0181 0.8209-0.0032 0.116-0.0012 0.2319 0.0099 0.3481 0.1621 1.846 0.7682 4.0369 1.396 4.9859-1.0238-0.8759-1.4451-2.9069-1.544-4.445-0.013-0.5199 0.0391-1.6801 0.0391-1.6801z" fill="#fff"/><path d="m80.64 64.97c0.0241 0.085 0.0491 0.1661 0.072 0.2409-0.1737 0.2682-0.343 0.4621-0.4759 0.546-0.0899 0.0552-0.1899 0.0822-0.2979 0.081-4e-3 0-0.0071-8e-4 -0.0111-8e-4 0.222-0.1922 0.472-0.493 0.7129-0.8671" fill="#fff"/><path d="m80.788 64.729c0.167-0.2849 0.629-1.101 0.7628-1.4389l0.0012 0.1358c-0.125 0.3931-0.4901 1.1752-0.6591 1.4811-0.038-0.0641-0.0728-0.1239-0.1049-0.178" fill="#fff"/><path d="m81.808 64.461c2e-3 -0.063-0.0162-0.305 2e-3 -0.3011 0.396 1.171 1.2109 2.331 1.8 2.7871-0.0091 0-0.019 0.0011-0.0281 0.0011-0.1309-2e-3 -0.2509-0.0332-0.358-0.0941-0.4119-0.237-1.112-1.256-1.4159-2.393" fill="#fff"/><path d="m81.841 63.81-2e-3 -0.2769c0.2563 0.5819 0.8102 1.601 1.0911 1.8669-0.074-0.0051-0.1429-0.0261-0.2038-0.0669-0.212-0.1401-0.6282-0.745-0.8853-1.5231" fill="#fff"/><path d="m82.903 65.498c-0.0403-0.023-0.0763-0.0519-0.108-0.0871 0.1389 0.0491 0.324 0.027 0.5238-0.028 0.19-0.0519 0.379-0.1398 0.557-0.2608 0.0669-0.0451 0.1341-0.095 0.1852-0.144 0 0-0.199 0.366-0.6101 0.5309-0.2029 0.063-0.3979 0.074-0.5479-0.011" fill="#fff"/><path d="m81.453 65.388c0.0462-0.3442 0.087-0.7832 0.1131-1.2031 0.0039-0.0941 0.0079-0.1899 0.011-0.286-0.0059 0.8479-0.0601 1.6671-0.121 1.8939-0.015-0.0068-0.0352-0.023-0.0581-0.0479 0.017-0.0919 0.0371-0.2121 0.055-0.3569" fill="#fff"/><path d="m80.682 64.74c0.3319 0.5661 0.6151 0.9831 0.7659 1.1642-0.0099 0.0559-0.017 0.095-0.021 0.1148-0.0558 0.0131-0.1139 0.021-0.157 0.021-0.019 0-0.0258-0.0028-0.0258-0.0028-0.1452-0.1092-0.3852-0.6072-0.5752-1.319 4e-3 0.0068 0.0091 0.0139 0.0131 0.0218" fill="#fff"/><path d="m81.871 59.19c0.032 8e-3 0.0692 0.0148 0.1009 0.0199 0.0403 0.0059 0.07 9e-3 0.0941 0.011-0.032 0.212-0.0518 0.3521-0.055 0.381l-0.0158 0.2049c-0.0063 0.0771-0.0182 0.2061-0.0233 0.2801-0.0309-0.0051-0.1168-0.017-0.1888-0.0139 0.01-0.18 0.023-0.3642 0.0258-0.4042 0.0043-0.053 0.0272-0.231 0.0621-0.4788" fill="#fff"/><path d="m82.16 57.189c0.0312 0.0082 0.0672 0.0141 0.0992 0.0192 0.0499 8e-3 0.0851 0.0108 0.1109 0.0128-0.057 0.381-0.1188 0.7872-0.1761 1.1551-0.0289 0.1891-0.0558 0.3671-0.0799 0.525-0.0179-0.0031-0.0369-0.0071-0.0598-0.0111-0.0621-9e-3 -0.106-0.013-0.1392-0.013 0.0522-0.366 0.1171-0.8079 0.178-1.2249 0.023-0.1581 0.0451-0.314 0.0669-0.4631" fill="#fff"/><path d="m81.961 60.265c-0.023 0.2809-0.0681 0.8229-0.0859 1.0389-0.0431-0.0068-0.1021-0.0139-0.1522-0.0119 0.0121-0.2481 0.0422-0.7711 0.0541-1.012 0.0099 2e-3 0.1349-0.0159 0.184-0.015" fill="#fff"/><path d="m81.875 61.487c-0.0221-0.0012-0.08-6e-3 -0.1361-0.0142-0.021-0.0028-0.0349-0.0059-0.0439-0.0079-0.0012-0.017 0.0031-0.0471 9e-3 -0.0641 0.0278-0.0028 0.0919 0 0.1551 0.0091 0.0108 2e-3 0.0198 0.0039 0.0258 0.0051 0.0011 0.0198-4e-3 0.053-0.0099 0.072" fill="#fff"/><path d="m81.957 60.139c0.0142 2e-3 0.023 4e-3 0.03 6e-3 0.0012 0.0079 0 0.019-8e-4 0.0309-0.0811 0.0161-0.1602 0.028-0.2361 0.0331-2e-3 -0.0232 0.0039-0.0601 0.011-0.0802 0.034-4e-3 0.1239-8e-4 0.1959 0.0102" fill="#fff"/><path d="m82.04 58.998c0.0392 0.0059 0.0672 0.0119 0.0811 0.017 2e-3 0.0249-0.0079 0.0779-0.0178 0.1029-0.0162-2e-3 -0.0581-0.0051-0.1171-0.0139-0.059-0.0091-0.1001-0.019-0.1171-0.0241-0.0039-0.021 6e-3 -0.0709 0.0162-0.0941 0.0238-2e-3 0.0819 0.0011 0.1547 0.0122" fill="#fff"/><path d="m81.786 64.045c-0.0261-9e-4 -0.0973-0.0029-0.1562 7e-3 -0.0068-0.155-0.0111-0.3129-0.0119-0.3481-0.0012-0.045 0.0039-0.1989 0.0119-0.4138 0.0261 4e-3 0.057 0.0059 0.0842 0.0068 0.034 0.0011 0.0589 0.0011 0.0779 0-0.0079 0.1842-0.0142 0.305-0.013 0.3302l0.0031 0.1769c2e-3 0.0669 0.0028 0.1769 4e-3 0.241" fill="#fff"/><path d="m81.806 63.02c-0.015-2e-3 -0.0309-0.0031-0.0499-0.0042-0.0521-2e-3 -0.0881 0-0.1151 0.0031 0.0131-0.3181 0.0289-0.701 0.0451-1.0619 6e-3 -0.138 0.0119-0.2732 0.017-0.4022 0.0261 0.0031 0.057 0.0051 0.0831 0.0062 0.0419 2e-3 0.0708 2e-3 0.0929 9e-4 -0.0161 0.3299-0.034 0.6831-0.0501 1.002-8e-3 0.1639-0.0159 0.3181-0.023 0.4561" fill="#fff"/><path d="m81.616 64.101c0.027-0.0071 0.1009-0.0131 0.161-0.0111 0.0119 0 0.0199 0.0011 0.025 2e-3 8e-4 0.0071 2e-3 0.0159 2e-3 0.0261-0.0649 0.0218-0.129 0.0399-0.1911 0.0518-0.0028-0.019-2e-3 -0.051 0.0031-0.0688" fill="#fff"/><path d="m81.717 63.204c-0.0491-2e-3 -0.0839-6e-3 -0.0978-0.0091-0.0051-0.0181-0.0011-0.0609 0.0048-0.0819 0.0201-4e-3 0.068-0.0071 0.1281-0.0051 0.0329 2e-3 0.0559 4e-3 0.0681 0.0071 0.0039 0.0209 0 0.0669-0.0063 0.089-0.0127 8e-4 -0.0479 2e-3 -0.0969 0" fill="#fff"/><path d="m82.331 56.991c0.0408 0.0119 0.074 0.0249 0.0867 0.0289 0.0023 0.0241-0.0068 0.0731-0.0159 0.0969-0.0178-8e-4 -0.0649-0.0048-0.1281-0.015-0.0728-0.0108-0.1139-0.0218-0.1227-0.0258 0-0.0102 0.0198-0.089 0.0309-0.1131 0.0249-2e-3 0.0771 0.0071 0.1491 0.0281" fill="#fff"/><path d="m83.37 60.585c-0.136 0.0521-0.265 0.0652-0.388 0.0402-0.0071-0.0031-0.0151-0.0062-0.0221-0.011-0.021-0.0142-0.042-0.036-0.061-0.0641 0.4751 0.087 0.7631-0.4059 0.7631-0.4059-0.034 0.1508-0.1072 0.3699-0.292 0.4408" fill="#fff"/><path d="m82.918 60.646c-0.6038-0.388-0.8158-1.368-0.7968-1.3708 0 0 0.091 0.091 0.0601-0.445 0.1718 1.131 0.5278 1.5298 0.7367 1.8158" fill="#fff"/><path d="m80.037 59.083c0.504-0.2129 1.2268-0.7659 1.813-1.5001 0.0527-0.0159 0.1037-0.0329 0.1528-0.0499-0.5409 0.8399-1.313 1.4791-1.6739 1.5681-0.0969 0.0238-0.1942 0.0148-0.2919-0.0181" fill="#fff"/><path d="m82.508 56.794c8e-3 -0.0331 0.0162-0.0671 0.0241-0.1 0.0978 0.7149 0.688 1.819 0.688 1.819-0.1582-0.1911-0.6171-0.646-0.7121-1.719" fill="#fff"/><path d="m82.043 57.595c-0.072 0.341-0.1337 0.7021-0.1697 0.9901-0.0151 0.1148-0.0241 0.2129-0.0292 0.2889-0.0239 0.0091-0.042 0.0139-0.0559 0.0139-0.0071-0.1698 0.108-0.7418 0.269-1.355-0.0039 0.021-9e-3 0.042-0.0142 0.0621" fill="#fff"/><path d="m81.576 57.45c0.2452-0.0051 0.292-0.0382 0.4822-0.026-0.6271 0.2868-1.5171 0.426-2.1101 0.036-0.1741-0.114-0.3019-0.273-0.383-0.474 0.042 0.0448 0.091 0.085 0.1449 0.121 0.4291 0.2818 1.2089 0.3569 1.866 0.343" fill="#fff"/><path d="m80.259 63.767c-0.011 0.0019-0.0218 0.0031-0.032 0.0031-0.1809-0.0321-0.356-0.1202-0.525-0.2631-0.2849-0.2429-0.525-0.6211-0.7089-1.025 0.121 0.089 0.9569 0.9859 1.4111 1.203-0.0511 0.0431-0.0993 0.072-0.1452 0.082" fill="#fff"/><path d="m81.315 61.957c0.1112-0.3382 0.2101-0.707 0.2892-1.0891-0.0462 0.536-0.1012 1.0131-0.1542 1.3181-0.0428-0.07-0.089-0.148-0.135-0.229" fill="#fff"/><path d="m80.45 63.782c0.2242-0.1851 0.5261-0.809 0.731-1.385 0.051 0.1851 0.1641 0.354 0.1931 0.3549-0.15 0.4181-0.3731 0.801-0.6279 0.964-0.0442 0.0281-0.18 0.059-0.2962 0.0661" fill="#fff"/><path d="m83.908 63.885c-0.0068 0.1539-0.036 0.305-0.0847 0.447-0.1293 0.3679-0.3093 0.6588-0.5451 0.716-0.0332-0.0022-0.0712-0.0272-0.114-0.0731 0.1829-0.123 0.3201-0.311 0.4301-0.5281 0.0569-0.1139 0.0989-0.235 0.1289-0.362 0.0428-0.191 0.1049-0.5068 0.1049-0.773 0 0 0.1001 0.1091 0.0799 0.5732" fill="#fff"/><path d="m82.981 65.029c-0.5942-0.4671-0.9321-2.1571-1.0571-3.4781 4e-3 -0.076 0.0079-0.1531 0.0119-0.2319 0.0479 0.254 0.106 0.5029 0.1709 0.739 0.2282 1.2008 0.6132 2.2998 0.9312 2.81 0.0618 0.0989 0.1199 0.1749 0.1749 0.2299-0.1029-0.0099-0.197-0.0419-0.2318-0.0689" fill="#fff"/><path d="m80.464 62.446c0.1587-0.178 0.3319-0.462 0.4938-0.8189 0.0249 0.0879 0.049 0.1709 0.072 0.2489-0.1168 0.2551-0.235 0.436-0.332 0.5111-0.0379 0.0289-0.079 0.0479-0.123 0.0578-0.036 0.0071-0.0728 6e-3 -0.1108 0.0011" fill="#fff"/><path d="m81.056 61.398c0.027-0.0671 0.5329-1.015 0.6262-1.364-0.0712 0.457-0.4031 1.2081-0.5321 1.552-0.034-0.0681-0.066-0.131-0.0941-0.188" fill="#fff"/><path d="m80.619 62.497c-0.0209 0.0179-0.043 0.0349-0.0652 0.0499-0.5507 0.3569-1.563-0.4221-2.0939-1.0139 0.1511 0.0779 0.3299 0.187 0.5182 0.2999 0.559 0.3381 1.2398 0.7511 1.6409 0.6641" fill="#fff"/><path d="m82.904 63.708c-0.2871-0.3039-0.7619-1.4831-0.953-2.7411 4e-3 -0.1208 8e-3 -0.2438 0.0111-0.366 0.2418 1.3751 0.7877 2.668 1.2138 3.2542-0.1009-0.0142-0.1911-0.0621-0.2719-0.1471" fill="#fff"/><path d="m82.88 62.163c-0.2299-0.2058-0.6638-1.0899-0.8489-2.016-0.0029-0.0428-6e-3 -0.0859-0.01-0.1278 0.235 0.9388 0.6821 1.813 1.018 2.2209-0.0559-9e-3 -0.11-0.0331-0.1591-0.0771" fill="#fff"/><path d="m83.186 62.342c-0.07 0.015-0.1409-2e-3 -0.2129-0.051 0.0119 0 0.0238-2e-3 0.036-4e-3 0.216-0.0459 0.4198-0.4221 0.5998-0.754 0.057-0.1049 0.112-0.2061 0.1621-0.286-0.089 0.462-0.305 1.0349-0.585 1.095" fill="#fff"/><path d="m80.675 61.269c0.216-0.3351 1.0092-1.622 1.1322-2.2371 0.0028 0.0569 0.0048 0.1139 0.0071 0.172-0.1091 0.6701-0.8291 1.9599-1.0021 2.1399-0.0861-0.032-0.1221-0.0448-0.1372-0.0748" fill="#fff"/><path d="m80.764 61.391c-0.015 0.0051-0.0301 0.0091-0.0451 0.0119-0.6089 0.1282-1.3379-1.237-1.6129-1.8918 0.1009 0.123 0.229 0.2948 0.3699 0.485 0.4252 0.5729 0.9403 1.2668 1.2881 1.3949" fill="#fff"/><path d="m81.508 62.302c0.0159-0.0879 0.0349-0.2049 0.0539-0.347 0.047-0.333 0.0941-0.7611 0.1281-1.1741 0.0139-0.1868 0.0261-0.3809 0.0349-0.572-0.034 0.934-0.114 1.91-0.1749 2.1492-0.0111-9e-3 -0.025-0.028-0.042-0.0561" fill="#fff"/><path d="m81.439 62.67c-0.1179-0.1168-0.284-0.5698-0.4728-1.285 0.0039 0.0071 0.0079 0.015 0.0119 0.023 0.29 0.5831 0.483 0.9561 0.6089 1.1421-4e-3 0.055-8e-3 0.0941-0.01 0.1131-0.0771 0.017-0.127 0.013-0.138 0.0068" fill="#fff"/><path d="m82.346 57.759s0.104 1.772 1.279 1.715c0 0-1.5698 0.4462-1.279-1.715" fill="#fff"/><path d="m80.303 60.923c0.5559-0.7059 1.099-1.6271 1.4448-2.4971-0.0428 0.235-0.0649 0.4142-0.0578 0.4961 8e-4 0.015 0.0048 0.0351 0.0289 0.0649-0.2682 0.7101-0.686 1.5182-1.2271 2.1161-0.076-0.0559-0.146-0.131-0.1888-0.18" fill="#fff"/><path d="m80.067 61.208c0.0621 0.059 0.1279 0.1109 0.176 0.146-0.282 0.2591-0.5921 0.4581-0.9291 0.559 0.2361-0.1621 0.4932-0.4059 0.7531-0.705" fill="#fff"/><path d="m88.44 60.469c0 0.1021-0.083 0.186-0.1859 0.186-0.1021 0-0.186-0.0839-0.186-0.186v-0.3869h0.3719z" fill="#fff"/><path d="m88.038 58.705c0.18-0.108 0.2702-0.1781 0.4612-0.0321 0.146 0.1092 0.4368 0.3612 0.7521 0.6381l-0.199 2.3091h-1.6232l-0.2168-2.5132c0.2548 0.1641 0.2307-0.038 0.8257-0.4019zm-0.2018 1.764c0 0.231 0.1871 0.4181 0.417 0.4181s0.4181-0.1871 0.4181-0.4181v-0.5029c0-0.0641-0.0522-0.1162-0.1162-0.1162h-0.603c-0.064 0-0.1159 0.0521-0.1159 0.1162z" fill="#fff"/><path d="m85.69 58.279c0.521 0.102 0.4068-0.0482 1.0658 0.4739 0.0811 0.0641 0.148 0.118 0.2081 0.1659l0.0499 0.5842c-0.044 0.0388-0.091 0.0859-0.146 0.1499-0.0139 0.0151-0.0289 0.0349-0.0471 0.0559-0.0708 0.083-0.2058 0.0581-0.2449-0.044-0.057-0.1508-0.087-0.288-0.29-0.354-0.1329-0.042-0.1618-0.11-0.2318-0.2109-0.1951-0.2971-0.1571-0.2801-0.3232-0.127-0.0728 0.0641-0.0578 0.0499-0.102 0.146-0.11 0.2401-0.4179-0.0309-0.622-0.1661-0.0609-0.04-0.2381-0.1729-0.331-0.144-0.0088 0.0822 0.1281 0.2001 0.174 0.2432 0.1811 0.1689 0.5641 0.4538 0.544 0.7228-0.0199 0.2231-0.0871 0.347-0.18 0.5111-0.1389 0.235-0.4009 0.1321-0.5959-0.023-0.2219-0.1751-0.106-0.18-0.407-0.3551-0.042-0.9029-0.0499-1.6988-0.0051-2.2918 0.5071 0.2789 1.205 0.6088 1.4842 0.663" fill="#fff"/><path d="m91.454 55.059c-0.2359 0.0712-0.4099 0.186-0.599 0.311-0.089 0.0592-0.1808 0.1202-0.282 0.1771v-0.4121c0.0241-0.0159 0.047-0.0309 0.07-0.0468 0.2191-0.1451 0.4581-0.303 0.811-0.3861z" fill="#fff"/><path d="m91.454 54.048c-0.2359 0.0712-0.4099 0.1862-0.599 0.311-0.089 0.0592-0.1808 0.1202-0.282 0.1771v-0.4121c0.0241-0.0159 0.047-0.0309 0.07-0.0468 0.2191-0.1451 0.4581-0.303 0.811-0.3861z" fill="#fff"/><path d="m90.007 55.076c-0.1468 0.0321-0.3138 0.0511-0.5068 0.0511-0.1523 0-0.288-0.012-0.4111-0.0329v-0.3501c0.1191 0.0241 0.2529 0.038 0.4111 0.038 0.2018 0 0.3659-0.023 0.5068-0.061z" fill="#fff"/><path d="m90.007 56.092c-0.1468 0.032-0.3138 0.051-0.5068 0.051-0.1523 0-0.288-0.0119-0.4111-0.0329v-0.3501c0.1191 0.0239 0.2529 0.038 0.4111 0.038 0.2018 0 0.3659-0.0229 0.5068-0.0609z" fill="#fff"/><path d="m89.089 54.1v-0.3512c0.1191 0.0252 0.2532 0.0391 0.4111 0.0391 0.2021 0 0.3651-0.023 0.5071-0.0609v0.3549c-0.148 0.032-0.3141 0.051-0.5071 0.051-0.152 0-0.288-0.0119-0.4111-0.0329" fill="#fff"/><path d="m88.523 55.599c-0.1409-0.0711-0.262-0.1511-0.377-0.2279-0.167-0.1111-0.3229-0.214-0.5191-0.2851v-0.3629c0.3101 0.0868 0.529 0.2319 0.73 0.366 0.0561 0.0368 0.1111 0.0728 0.1661 0.108z" fill="#fff"/><path d="m88.523 54.588c-0.1409-0.0711-0.262-0.1511-0.377-0.2282-0.167-0.1108-0.3229-0.214-0.5191-0.2848v-0.3632c0.3101 0.0882 0.529 0.2322 0.73 0.366 0.0561 0.0371 0.1111 0.0731 0.1661 0.108z" fill="#fff"/><path d="m86.234 55.17c0.2049-0.0759 0.451-0.127 0.7679-0.127 0.0198 0 0.0388 9e-4 0.059 9e-4v0.345c-0.0202 0-0.0392-9e-4 -0.059-9e-4 -0.339 0-0.5701 0.0641-0.7679 0.159z" fill="#fff"/><path d="m82.736 55.94c-0.1281 0.3909-0.284 0.8759-0.303 0.9859 0 0-0.1361-0.0459-0.1962-0.0459-0.0039 0 0.1131-0.4272 0.2251-0.8382z" fill="#fff"/><path d="m83.655 54.683s0.648-0.2469 1.0021-0.368c0.187-0.0629 0.5028-0.1369 0.5689 0.0182 0.0581 0.1369-0.1168 0.3608-0.3719 0.5139-0.6571 0.3949-1.656 0.6619-2.492 1.027-0.4399 0.1919-0.9312 0.4949-1.1432 0.864l-0.7469-1.7481c0.3509-0.343 0.739-0.6579 1.5262-0.9939 0.5298-0.227 1.188-0.411 1.188-0.411z" fill="#fff"/><path d="m101.65 55.874c-0.8359-0.3648-1.8348-0.6318-2.493-1.027-0.254-0.1528-0.43-0.377-0.3711-0.5139 0.0661-0.1551 0.3821-0.0811 0.5692-0.0179 0.3541 0.1199 1.0021 0.368 1.0021 0.368l0.4688-1.0982s0.6579 0.184 1.188 0.411c0.7872 0.3362 1.175 0.6512 1.5251 0.9942l-0.747 1.7478c-0.2112-0.3688-0.703-0.6718-1.1421-0.864" fill="#fff"/><path d="m84.685 60.554c0.1052 0.0961 0.2622 0.2029 0.4482 0.0961 0.032-0.0201 0.5471-0.5502 0.7418-0.7081 0.0933-0.0771 0.1871-0.0641 0.2753-0.0071 0.398 0.2631 0.502 0.237 0.8209-0.0558 0.028-0.025 0.049-0.044 0.07-0.0641l0.163 1.8901-0.3189 0.4899-0.0011 0.0019c-0.0012 0.0012-0.0012 2e-3 -2e-3 2e-3 -0.0012 0.0031-0.0031 0.0051-4e-3 0.0071-0.0011 2e-3 -0.0011 0.0031-2e-3 4e-3 -0.0011 2e-3 -2e-3 4e-3 -0.0031 0.0071 0 8e-4 -8e-4 0.0028-8e-4 0.0039-0.0012 2e-3 -2e-3 4e-3 -2e-3 6e-3 -0.0012 2e-3 -0.0012 4e-3 -2e-3 0.0059 0 2e-3 -0.0012 0.0032-0.0012 0.0051-8e-4 2e-3 -8e-4 4e-3 -8e-4 0.0071 0 9e-4 -0.0011 0.0029-0.0011 4e-3v0.0079 0.0029 1.1041c0 0.064 0.0518 0.1151 0.1159 0.1151h0.504c0.0641 0 0.1151-0.0511 0.1151-0.1151v-0.3889h0.273v0.3889c0 0.064 0.0518 0.1151 0.1159 0.1151h0.504c0.0641 0 0.1159-0.0511 0.1159-0.1151v-0.3889h0.2722v0.3889c0 0.064 0.0518 0.1151 0.1159 0.1151h0.504c0.0641 0 0.1159-0.0511 0.1159-0.1151v-1.1041c0-9e-4 0-2e-3 -8e-4 -0.0029v-0.0079c0-0.0011 0-0.0031-0.0011-4e-3v-0.0071c-9e-4 -0.0019-9e-4 -0.0031-2e-3 -0.0051 0-0.0019-9e-4 -0.0039-9e-4 -0.0059-0.0011-2e-3 -0.0011-4e-3 -2e-3 -6e-3 -0.0011-0.0011-0.0011-0.0031-0.0019-0.0039-0.0012-0.0031-2e-3 -0.0051-0.0032-0.0071 0-9e-4 -8e-4 -2e-3 -2e-3 -4e-3 -8e-4 -2e-3 -0.0019-4e-3 -0.0039-0.0071 0 0-0.0012-8e-4 -0.0012-2e-3l-8e-4 -0.0019-0.32-0.4899 0.1899-2.2022c0.2832 0.2392 0.4739 0.411 0.659 0.5411 0.7481 0.5261 1.1002 0.3161 1.2731 0.169 0.1321-0.1131 0.4119-0.341 0.4498-0.3739v4.9708c-0.4728 0.0261-0.7208 0.197-1.0029 0.396-0.3189 0.2251-0.6808 0.4811-1.3759 0.4811-0.6939 0-1.0559-0.256-1.3759-0.4811-0.3042-0.2148-0.5672-0.4008-1.1223-0.4008-0.5539 0-0.8169 0.186-1.1219 0.4008-0.2078 0.146-0.4408 0.3022-0.7659 0.3952 0.1349 1.1729 0.2848 2.368 0.441 3.524 0.0309 0.233 0.1809 0.4238 0.3819 0.4859 2.5112 0.7721 4.835 0.854 5.7001 0.854 0.1659 0 0.279-0.0039 0.328-0.0051 0.019-8e-4 0.0369-8e-4 0.0559 0 0.3021 0.0102 3.0322 0.0732 6.0281-0.8489 0.201-0.0621 0.3509-0.2529 0.3818-0.4859 0.1571-1.1571 0.307-2.353 0.4411-3.5271-0.3189-0.0939-0.5491-0.2469-0.7549-0.3921-0.305-0.2148-0.568-0.4008-1.1219-0.4008-0.555 0-0.8181 0.186-1.1222 0.4008-0.3201 0.2251-0.6821 0.4811-1.3768 0.4811-0.6942 0-1.0562-0.256-1.3763-0.4811-0.269-0.1899-0.5059-0.3569-0.9399-0.3929v-5.055c0.462 0.307 0.682 0.7691 1.112 1.1279 0.2271 0.1891 0.347 0.2611 0.5681 0.216 0.434-0.0898 0.6468-0.4918 0.9969-0.1168 0.5499 0.5888 1.2331 0.832 1.7331 0.4828l0.4139-0.309 0.117-0.0899c0.3201-0.2179 0.343-0.087 0.66 0.1041 0.282 0.1709 0.64 0.5329 1.216 0.0649l0.684-0.7121c-0.1488 3.132-0.6508 6.937-0.8818 8.6491-0.0511 0.3759-0.3022 0.686-0.6412 0.79-3.0538 0.94-5.8428 0.8759-6.149 0.8651h-0.032c-0.307 0.0108-3.0948 0.0749-6.1489-0.8651-0.339-0.104-0.5902-0.4141-0.6409-0.79-0.2251-1.6671-0.7671-5.8941-0.932-9.006 0.1029 0.0689 0.2038 0.1449 0.2967 0.241 0.0613 0.068 0.0993 0.085 0.163 0.144" fill="#fff"/><path d="m87.339 52.462c-0.0649 0.0119-0.1187 2e-3 -0.161-0.0301-0.0428-0.032-0.0697-0.0779-0.0808-0.136-0.0121-0.059-0.0031-0.1111 0.025-0.1571 0.0289-0.045 0.076-0.0739 0.142-0.0859 0.0649-0.0121 0.1191-0.0019 0.1619 0.0309 0.043 0.0321 0.0691 0.078 0.079 0.137 0.0111 0.0592 2e-3 0.1111-0.0269 0.1561-0.0292 0.0451-0.0751 0.0729-0.1392 0.0851" fill="#fff"/><path d="m95.673 52.294c-0.0451-0.0059-0.0902-0.013-0.135-0.0189 8e-3 -0.0601 0.0159-0.1211 0.025-0.1812 0.0451 6e-3 0.091 0.0122 0.1361 0.019 0.032 4e-3 0.0569 0.015 0.0759 0.0332 0.019 0.019 0.0258 0.0428 0.021 0.0728-4e-3 0.0312-0.0181 0.053-0.0411 0.0641-0.0218 0.0119-0.0499 0.0159-0.0819 0.011" fill="#fff"/><path d="m94.451 52.148c-0.0379-4e-3 -0.0751-0.0068-0.1131-0.0099 6e-3 -0.0641 0.0111-0.127 0.017-0.1899 0.038 0.0028 0.076 0.0068 0.114 0.0099 0.089 0.0091 0.131 0.0451 0.1242 0.108-0.0063 0.0629-0.0542 0.0901-0.1421 0.0819" fill="#fff"/><path d="m93.176 52.066c-0.066-0.0028-0.1159-0.0249-0.1499-0.066-0.034-0.04-0.0499-0.091-0.0479-0.15 2e-3 -0.0598 0.0218-0.1088 0.0598-0.1468 0.0371-0.038 0.0901-0.0561 0.157-0.053 0.0661 0.0028 0.116 0.0258 0.15 0.0669s0.0502 0.0921 0.0462 0.1511c-0.0031 0.0598-0.0233 0.1088-0.0612 0.146-0.038 0.0379-0.089 0.055-0.154 0.0518" fill="#fff"/><path d="m91.839 52.033c-0.038 0-0.076 0.0012-0.1131 0.0012-8e-4 -0.0641-2e-3 -0.127-0.0028-0.1911 0.0388 0 0.0768 0 0.1148-0.0011 0.089 0 0.1341 0.032 0.1341 0.0952 0 0.0638-0.044 0.095-0.133 0.0958" fill="#fff"/><path d="m92.487 52.037c-0.045-9e-4 -0.091-2e-3 -0.136-2e-3 0.0011-0.0609 2e-3 -0.1219 2e-3 -0.1828 0.0462 0 0.0921 8e-4 0.1372 2e-3 0.0328 0 0.0589 9e-3 0.0799 0.0238 0.021 0.0161 0.0309 0.0391 0.03 0.07-0.0011 0.0312-0.0122 0.0541-0.0331 0.068-0.021 0.015-0.0471 0.0221-0.08 0.021" fill="#fff"/><path d="m86.667 52.597c-0.0439 9e-3 -0.0881 0.019-0.1321 0.028-0.0099-0.0479-0.0209-0.0961-0.0309-0.1451 0.0471-0.0099 0.093-0.0198 0.1401-0.0298 0.0269-0.0051 0.051-0.0042 0.07 0.0049 0.019 9e-3 0.0309 0.0249 0.036 0.049 0.0099 0.0479-0.0182 0.0791-0.0831 0.093" fill="#fff"/><path d="m85.749 52.799c-0.034 0.0079-0.068 0.017-0.1032 0.0258-0.0329-0.131-0.066-0.2608-0.0981-0.3909 0.034-0.0091 0.0692-0.0179 0.1041-0.0261 0.0652-0.017 0.119-0.0128 0.161 0.013 0.0411 0.0241 0.07 0.0692 0.085 0.1341 0.0162 0.0641 0.0111 0.1171-0.0139 0.159-0.0261 0.0411-0.0711 0.0689-0.1349 0.0851" fill="#fff"/><path d="m86.628 52.345c-0.049 0.0099-0.0981 0.0209-0.1468 0.0308-0.0122-0.0538-0.0241-0.108-0.0352-0.1618 0.0471-0.0102 0.0941-0.0201 0.1401-0.0301 0.038-0.0079 0.068-9e-3 0.091-0.0011 0.0241 0.0071 0.0391 0.0261 0.045 0.057 0.0111 0.055-0.0201 0.0901-0.0941 0.1052" fill="#fff"/><path d="m85.101 52.962c-0.0091-0.017-0.0181-0.0321-0.0281-0.0451-0.0499-0.0658-0.1009-0.1318-0.1519-0.199 0.07-0.019 0.14-0.038 0.2089-0.057-0.0099 0.0831-0.019 0.165-0.0289 0.2481-2e-3 0.019-2e-3 0.036 0 0.053" fill="#fff"/><path d="m92.005 52.786c-2.7542 0.0059-5.5061 0.4711-8.136 1.3941-0.2971-0.6971-0.5962-1.3371-0.834-1.984 2.753-0.966 5.866-1.4581 8.9649-1.4471h0.0102c3.0988-0.011 6.2118 0.4811 8.9648 1.4471-0.2378 0.6469-0.5369 1.2869-0.8339 1.984-2.63-0.923-5.3822-1.3882-8.136-1.3941zm-6.8451-0.3779c-6e-3 0.0428-0.0108 0.0859-0.0159 0.129-0.1001 0.0269-0.199 0.0539-0.2971 0.0819-0.0269-0.034-0.0538-0.068-0.0819-0.1029-0.0479 0.0139-0.0961 0.0278-0.144 0.042 0.1491 0.1808 0.2959 0.364 0.4399 0.5479 0.0499-0.0139 0.099-0.0269 0.148-0.0411 0.0292-0.2319 0.0609-0.464 0.095-0.6959-0.0479 0.0131-0.0959 0.0261-0.144 0.0391zm0.8801 0.112c-0.0221-0.095-0.068-0.165-0.1411-0.2081-0.072-0.0439-0.1639-0.0521-0.277-0.0241-0.0811 0.021-0.163 0.0411-0.2449 0.0621 0.0539 0.2089 0.108 0.4181 0.1619 0.627 0.0802-0.0201 0.1601-0.0411 0.24-0.0601 0.1092-0.028 0.186-0.0759 0.2291-0.1468 0.0439-0.0711 0.055-0.1542 0.032-0.25zm0.8051-0.212c0.0189-0.0312 0.0238-0.0681 0.015-0.1112-0.0071-0.0348-0.0201-0.0629-0.0411-0.0839-0.021-0.0209-0.0459-0.0351-0.0751-0.0419-0.029-0.0071-0.0579-0.0102-0.0871-0.0102-0.0289 0.0011-0.0598 0.0042-0.0918 0.011-0.095 0.0202-0.1891 0.04-0.2829 0.061 0.0459 0.2112 0.093 0.4221 0.1397 0.633 0.093-0.021 0.1871-0.0409 0.2812-0.061 0.0701-0.015 0.1219-0.04 0.1559-0.074 0.0329-0.0348 0.0451-0.0788 0.0341-0.1318-0.0139-0.0711-0.0562-0.1111-0.1262-0.119 0.034-0.0182 0.0601-0.042 0.0783-0.072zm0.7619-0.233c-0.0221-0.0372-0.049-0.0692-0.083-0.095-0.0349-0.0261-0.076-0.0442-0.1251-0.0541-0.0479-0.01-0.1009-0.01-0.1578 0-0.057 0.011-0.1061 0.0289-0.148 0.0561-0.0422 0.0269-0.0743 0.0578-0.0972 0.0949-0.023 0.036-0.0369 0.0749-0.044 0.118-0.0071 0.0419-0.0059 0.085 2e-3 0.1281 0.0091 0.0439 0.0241 0.0839 0.0471 0.1199 0.0221 0.0371 0.0499 0.068 0.0839 0.093 0.034 0.0261 0.0751 0.0431 0.123 0.053 0.047 0.0099 0.0989 0.0099 0.1542-9e-4 0.0558-0.0102 0.1037-0.028 0.1448-0.0541s0.0732-0.057 0.0961-0.0921c0.023-0.036 0.038-0.0749 0.046-0.1168 0.0079-0.042 0.0079-0.0851 0.0011-0.129-0.0082-0.0442-0.0221-0.0842-0.0431-0.121zm0.6769-0.305c-0.0439 0.0059-0.089 0.013-0.1341 0.0189-0.0819 0.1551-0.1629 0.3099-0.2429 0.4649-2e-3 -0.0258-0.0059-0.0558-0.011-0.0878-0.017-0.11-0.0349-0.22-0.0519-0.33-0.0479 0.0079-0.095 0.015-0.1432 0.023 0.0352 0.2128 0.0701 0.426 0.1052 0.6389 0.0439-0.0071 0.0879-0.0139 0.131-0.021 0.0779-0.155 0.159-0.3101 0.2401-0.4649 0.0019 0.027 0.0059 0.0559 0.0107 0.089 0.0162 0.11 0.0321 0.22 0.0482 0.33 0.0471-0.0071 0.093-0.013 0.1389-0.0201-0.03-0.2141-0.0601-0.4269-0.091-0.6409zm0.7489 0.1488c-0.0039-0.0369-0.0127-0.0689-0.0277-0.097-0.0142-0.028-0.0312-0.051-0.0522-0.068-0.0198-0.017-0.0439-0.0298-0.0709-0.04-0.0272-0.0099-0.0541-0.015-0.0822-0.017-0.0289-2e-3 -0.0578-8e-4 -0.089 0.0031-0.0297 0.0029-0.0589 0.01-0.0859 0.0179-0.0269 0.0091-0.0518 0.0221-0.0759 0.038-0.0241 0.0161-0.0431 0.0351-0.059 0.0561-0.0162 0.0221-0.0269 0.0479-0.034 0.0791-0.0071 0.0309-0.0071 0.0638-2e-3 0.1009 0.0179 0.1329 0.036 0.267 0.0539 0.4 0.047-6e-3 0.0929-0.0119 0.14-0.0179-0.0179-0.1312-0.0349-0.263-0.0519-0.394-0.0122-0.091 0.032-0.144 0.131-0.157 0.1-0.0122 0.155 0.028 0.1661 0.1199 0.0159 0.1309 0.0317 0.263 0.0468 0.394 0.0462-0.0051 0.0929-0.0111 0.1391-0.0159-0.015-0.1341-0.0311-0.2682-0.0462-0.4022zm0.8323-0.3249c-0.0482 4e-3 -0.0961 8e-3 -0.144 0.0119 0.0119 0.1321 0.0229 0.2642 0.0349 0.3972-0.0661-0.0811-0.1321-0.163-0.1979-0.243-0.0281 2e-3 -0.0561 0.0048-0.0831 0.0068-0.0501 0.093-0.1 0.1851-0.1491 0.277-0.0139-0.1318-0.0269-0.2639-0.0411-0.3969-0.0479 0.0051-0.0958 0.0099-0.1428 0.0151 0.0229 0.2148 0.0459 0.4288 0.07 0.644 0.0431-0.0051 0.0859-0.0091 0.129-0.0142 0.0629-0.1188 0.127-0.2378 0.1919-0.3569 0.0861 0.1049 0.17 0.2101 0.254 0.315 0.0442-4e-3 0.087-0.0071 0.1301-0.0111-0.0182-0.2149-0.0349-0.43-0.0519-0.6449zm0.8529 0.47c-0.1071 6e-3 -0.214 0.0119-0.3211 0.0179-0.0029-0.046-6e-3 -0.091-0.0088-0.137 0.0978-0.0059 0.197-0.0119 0.2948-0.017-2e-3 -0.0399-4e-3 -0.081-6e-3 -0.121-0.0989 0.0051-0.1978 0.0111-0.297 0.017-0.0029-0.0479-6e-3 -0.0958-0.0088-0.144 0.1108-0.0068 0.2219-0.013 0.3328-0.019-2e-3 -0.04-4e-3 -0.0808-6e-3 -0.1219-0.159 8e-3 -0.3189 0.017-0.4779 0.0281 0.015 0.216 0.0289 0.4309 0.0439 0.646 0.1531-0.0102 0.307-0.019 0.4601-0.0272-2e-3 -0.04-4e-3 -0.0808-6e-3 -0.1219zm0.603-0.0261c-0.0681 2e-3 -0.135 4e-3 -0.2021 0.0071-6e-3 -0.174-0.012-0.3489-0.0179-0.523-0.0479 2e-3 -0.095 4e-3 -0.1432 6e-3 0.0071 0.174 0.0142 0.3481 0.021 0.5221-0.0669 2e-3 -0.1338 0.0048-0.2018 0.0088 2e-3 0.0411 4e-3 0.0831 0.0059 0.125 0.18-0.0088 0.3612-0.0159 0.5412-0.0198-0.0012-0.042-2e-3 -0.0842-0.0031-0.1262zm0.5099-0.318c-0.036 0.0011-0.072 0.0011-0.108 0.0011-8e-4 -0.0711-2e-3 -0.142-0.0028-0.2129-0.0482 9e-4 -0.0961 2e-3 -0.144 2e-3 0.0039 0.216 0.0068 0.432 0.0108 0.648 0.0822-0.0011 0.1641-2e-3 0.2471-0.0031 0.188-0.0011 0.2821-0.0731 0.2829-0.218 0.0012-0.1451-0.0949-0.218-0.286-0.2171zm0.8141-0.205c-0.0629 0.074-0.1241 0.148-0.1851 0.2231-0.0348-0.0011-0.07-0.0011-0.1049-2e-3 9e-4 -0.0759 2e-3 -0.1511 0.0029-0.227-0.0479 0-0.0958-9e-4 -0.144-9e-4 -9e-4 0.216-0.0029 0.4309-0.0048 0.6469 0.0898 0.0011 0.18 2e-3 0.269 4e-3 0.0348 0.0011 0.0657-2e-3 0.0949-0.0091 0.0301-6e-3 0.057-0.0159 0.0839-0.0309 0.0261-0.0139 0.0471-0.036 0.0621-0.0641 0.0159-0.028 0.0238-0.0618 0.025-0.1009 0.0031-0.0981-0.0431-0.1641-0.1389-0.1961 0.068-0.08 0.1357-0.1599 0.2049-0.239-0.055-2e-3 -0.11-0.0028-0.165-4e-3zm0.8771 0.233c-0.0122-0.0408-0.0321-0.0779-0.0593-0.1108-0.0278-0.0332-0.0629-0.0601-0.108-0.0811-0.0448-0.0209-0.0969-0.032-0.1539-0.0351-0.0578-0.0028-0.11 0.0042-0.1559 0.021-0.0471 0.017-0.085 0.0402-0.1159 0.0711-0.0301 0.0301-0.0531 0.0649-0.0692 0.1049-0.0159 0.0391-0.025 0.0811-0.0258 0.1261-0.0023 0.044 4e-3 0.0871 0.0179 0.127 0.013 0.0411 0.034 0.0771 0.0609 0.11 0.0269 0.032 0.0629 0.0581 0.1071 0.078 0.044 0.0209 0.0939 0.032 0.1509 0.0351 0.0561 2e-3 0.1071-0.0051 0.1522-0.021 0.0459-0.0161 0.0839-0.0391 0.1139-0.0691 0.0301-0.0301 0.0539-0.0641 0.0709-0.1029 0.017-0.0391 0.0269-0.0811 0.0292-0.125 0.0028-0.0451-0.0023-0.0871-0.015-0.1282zm0.5958-0.0688c-0.0119-0.027-0.0289-0.0482-0.053-0.0641-0.0238-0.0159-0.0499-0.0289-0.0799-0.0371-0.029-0.0088-0.063-0.0148-0.1001-0.0168-0.093-7e-3 -0.1769 0.0068-0.2509 0.0409-0.0031 0.0439-0.0051 0.089-0.0079 0.1329 0.074-0.042 0.1539-0.059 0.2398-0.053 0.0842 0.0062 0.123 0.0292 0.1202 0.0711-0.0011 0.0179-0.0111 0.0329-0.0301 0.046-0.0201 0.013-0.043 0.0221-0.07 0.0289-0.028 0.0062-0.0569 0.0142-0.089 0.0241-0.032 0.0099-0.0621 0.0209-0.0901 0.0331-0.0281 0.0119-0.051 0.0298-0.0709 0.0559-0.019 0.0249-0.03 0.0561-0.032 0.091-4e-3 0.0601 0.0159 0.1071 0.0601 0.1411 0.0428 0.0349 0.0989 0.0539 0.1669 0.059 0.082 6e-3 0.154-0.0051 0.216-0.034 0.0029-0.0431 0.0068-0.0862 0.01-0.129-0.059 0.0349-0.1282 0.0488-0.207 0.042-0.0711-6e-3 -0.1051-0.0292-0.1031-0.0672 0.0011-0.0179 0.011-0.0318 0.03-0.044 0.019-0.011 0.042-0.0198 0.0692-0.026 0.0269-6e-3 0.0569-0.0139 0.089-0.023 0.0317-0.0099 0.0618-0.021 0.0898-0.0329 0.027-0.011 0.0511-0.03 0.072-0.0561 0.0202-0.025 0.0309-0.0558 0.034-0.091 0.0032-0.036-0.0019-0.0658-0.013-0.0918zm0.3572 0.157c-0.036-0.0031-0.0732-0.0071-0.1092-0.0102 0.0071-0.0709 0.0131-0.1409 0.0202-0.212-0.0482-4e-3 -0.0961-8e-3 -0.144-0.0119-0.0182 0.2151-0.036 0.43-0.055 0.6451 0.0819 0.0068 0.1649 0.0139 0.2469 0.0218 0.1871 0.0182 0.288-0.0439 0.3038-0.1879 0.0151-0.144-0.072-0.227-0.2627-0.2449zm0.4028-0.1732c-0.0238 0.2152-0.0471 0.4292-0.07 0.644 0.1522 0.017 0.305 0.0352 0.458 0.0542 0.0051-0.04 0.01-0.0811 0.0162-0.1211-0.1072-0.0141-0.214-0.026-0.3212-0.0391 0.0051-0.0448 0.0111-0.091 0.0162-0.1369 0.0978 0.0119 0.1959 0.023 0.2939 0.036 0.0049-0.04 0.01-0.0799 0.0151-0.121-0.0981-0.0119-0.197-0.0241-0.2951-0.0349 0.0051-0.0482 0.011-0.0961 0.0159-0.1432 0.1111 0.0122 0.2211 0.0261 0.331 0.04 0.0051-0.0408 0.01-0.0808 0.0162-0.1219-0.159-0.0201-0.3172-0.038-0.4762-0.0561zm1.0162 0.131c-0.0712 0.066-0.1412 0.1321-0.2112 0.1992-0.0349-0.0051-0.07-0.0102-0.104-0.015 0.0102-0.0751 0.0201-0.1502 0.0312-0.2251-0.0482-0.0059-0.0961-0.0119-0.1432-0.0189-0.028 0.214-0.057 0.428-0.085 0.642 0.089 0.0119 0.178 0.0238 0.267 0.0368 0.0351 0.0052 0.066 6e-3 0.0961 0.0032 0.03-2e-3 0.059-0.0091 0.087-0.0202 0.0281-0.0119 0.051-0.03 0.07-0.0558 0.019-0.0261 0.0309-0.059 0.0369-0.0981 0.015-0.0961-0.023-0.1669-0.1148-0.2109 0.0779-0.0711 0.1559-0.142 0.2338-0.212-0.0538-0.0082-0.1088-0.017-0.1638-0.0252zm0.2438 0.0382c-0.034 0.2129-0.0669 0.4258-0.1009 0.639 0.0459 0.0079 0.0929 0.015 0.1389 0.0229 0.0351-0.2129 0.07-0.4269 0.1051-0.64-0.0482-0.0071-0.0949-0.0151-0.1431-0.0219zm0.5712 0.0958c-0.0471-0.0079-0.0942-0.017-0.1412-0.0249-0.0301 0.1721-0.0598 0.343-0.0899 0.5151-0.0671-0.0122-0.1329-0.023-0.2001-0.0341-0.0071 0.0411-0.0139 0.082-0.0198 0.1231 0.178 0.03 0.356 0.062 0.5337 0.0949 0.0082-0.0411 0.0162-0.0819 0.0241-0.123-0.0669-0.0119-0.1329-0.0249-0.1998-0.0371 0.0309-0.171 0.0618-0.3419 0.093-0.514zm0.6859 0.133c-0.0241 0.0371-0.049 0.0731-0.0731 0.1091-0.1001-0.021-0.1998-0.0411-0.301-0.0601-8e-3 -0.0428-0.017-0.0859-0.025-0.1278-0.049-0.0102-0.0981-0.019-0.1468-0.0281 0.0507 0.2291 0.0989 0.4581 0.1448 0.6871 0.0499 0.01 0.1001 0.0199 0.1491 0.0298 0.131-0.1939 0.2631-0.3869 0.398-0.5788-0.049-0.0102-0.0969-0.0202-0.146-0.0312zm0.4261 0.093c-0.0471-0.0108-0.0941-0.021-0.1412-0.0318-0.0368 0.1709-0.074 0.341-0.1119 0.5108-0.0661-0.015-0.1321-0.0289-0.1979-0.0428-0.0091 0.0408-0.017 0.0819-0.0261 0.123 0.178 0.0369 0.3549 0.076 0.5321 0.118 0.0088-0.0411 0.019-0.082 0.0278-0.1222-0.0658-0.0159-0.1319-0.0309-0.1979-0.0459 0.038-0.1701 0.076-0.3391 0.1151-0.5091zm0.2837 0.0652c-0.0487 0.21-0.0989 0.4209-0.1488 0.631 0.1508 0.0348 0.3011 0.072 0.451 0.1108 0.0099-0.04 0.0199-0.0788 0.0301-0.1188-0.1052-0.0272-0.2101-0.053-0.3153-0.0782 0.0111-0.0448 0.0222-0.089 0.0332-0.1338 0.0958 0.0229 0.1919 0.047 0.2889 0.072 0.0102-0.0391 0.0201-0.0791 0.03-0.1182-0.0969-0.0238-0.1939-0.0488-0.2908-0.072 0.0119-0.0468 0.0229-0.093 0.034-0.1398 0.1088 0.0258 0.2168 0.053 0.326 0.0808 0.0099-0.0388 0.0198-0.0788 0.0297-0.1179-0.1559-0.04-0.3118-0.0791-0.468-0.1159zm1.1452 0.299c-0.036 0.1279-0.072 0.2548-0.1091 0.383-0.032-0.0992-0.066-0.199-0.1001-0.2982-0.0269-0.0068-0.0538-0.0148-0.0808-0.0219-0.0802 0.0681-0.159 0.137-0.2381 0.205 0.0341-0.1281 0.0681-0.2571 0.1029-0.3861-0.0467-0.0119-0.0938-0.0238-0.1408-0.0368-0.0539 0.2089-0.1092 0.4178-0.163 0.627 0.0419 0.011 0.0839 0.0218 0.127 0.0329 0.1009-0.089 0.204-0.1769 0.3081-0.2651 0.0428 0.1282 0.0859 0.2571 0.127 0.3861 0.0419 0.0119 0.0839 0.0241 0.1258 0.036 0.0601-0.2081 0.1211-0.415 0.1812-0.6219-0.0471-0.0142-0.093-0.0272-0.1401-0.04" fill="#fff"/><path d="m97.094 52.53c0-0.019-2e-3 -0.0369-0.0048-0.0531-0.015-0.0819-0.0301-0.1629-0.0451-0.2449 0.07 0.0139 0.1409 0.0281 0.2109 0.042-0.0459 0.07-0.0918 0.1389-0.1369 0.2089-0.0099 0.0162-0.0181 0.0312-0.0241 0.0471" fill="#fff"/><path d="m92.15 49.774v0.7141c-0.1021 0-0.201 2e-3 -0.3011 0.0028v-0.7279c-0.379 0.0499-0.9071 0.343-1.5049 0.7849-0.2341 0.0142-0.4589 0.0312-0.678 0.0502 0.9079-0.7302 1.737-1.2172 2.2969-1.2172 0.551 0 1.3651 0.4731 2.2569 1.1851-0.2248-0.017-0.4498-0.032-0.6718-0.043-0.5471-0.4009-1.0329-0.675-1.398-0.749" fill="#fff"/><path d="m95.657 59.186c-0.2911-0.0842-0.3232 0.0989-0.106 0.2299 0.36 0.216 0.6029 0.4901 0.818 0.7789 0.281 0.3671 0.288 0.993-0.4971 0.8311-0.4119-0.085-0.614-0.3359-0.8629-0.5431-0.4621-0.3829-1.0831-1.3909-1.62-1.5378-0.0819-0.0221-0.14 0.076-0.0839 0.1389 0.7449 0.8351 0.5879 1.6489-0.1131 1.1979-0.0921-0.0589-0.1749-0.1309-0.2512-0.2089-0.3118-0.318-0.4439-0.5261-0.7908-0.6959v-3.4911c0.5771 0.0411 0.9039 0.2681 1.1939 0.4731 0.305 0.214 0.5681 0.3999 1.122 0.3999 0.555 0 0.818-0.1859 1.1219-0.3999 0.3201-0.2262 0.682-0.4822 1.3762-0.4822 0.6951 0 1.0571 0.256 1.3768 0.4822 0.2413 0.1698 0.4581 0.32 0.8133 0.3758-0.1151-0.248-0.2962-0.549-0.5261-0.8858-0.2041-0.0901-0.368-0.2021-0.5202-0.3101-0.3098-0.218-0.5768-0.407-1.1438-0.407-0.566 0-0.8331 0.189-1.1432 0.407-0.3149 0.2231-0.6718 0.4751-1.3549 0.4751-0.682 0-1.0401-0.252-1.355-0.4742-0.2738-0.1939-0.5159-0.3629-0.9609-0.4v0.741h-0.3011v-2.8049c0.1001-2e-3 0.2001-0.0031 0.3011-4e-3v0.6279c0.5649 0.0411 0.8881 0.2642 1.1729 0.4652 0.309 0.2179 0.5772 0.407 1.143 0.407 0.5672 0 0.8339-0.1882 1.144-0.407 0.305-0.216 0.6531-0.457 1.296-0.472-0.0649-0.072-0.1321-0.144-0.1978-0.216 0.2069 0.0408 0.4138 0.0859 0.6199 0.1338 1.1129 1.2761 2.005 2.5132 2.249 3.1731 0.1658 0.4501 0.1999 1.438 0.1559 2.679-0.9039 0.4609-1.4428 0.0411-1.4428 0.0411-0.2971-0.1811-0.6962-0.428-0.9831-0.468-0.089-0.0122-0.136 0.1018-0.064 0.1548 0.498 0.362 1.0859 1.5032 0.519 1.489-0.3631-0.0079-1.3039-1.2639-2.105-1.4938zm1.5848-5.1092c-0.0847-0.0119-0.1749-0.0198-0.2778-0.0198-0.566 0-0.8331 0.189-1.1432 0.4079-0.3149 0.2219-0.6718 0.4739-1.3549 0.4739-0.682 0-1.0389-0.252-1.3539-0.4739-0.2749-0.1939-0.517-0.3629-0.962-0.3989v0.7078c0.5649 0.0411 0.8869 0.2642 1.1729 0.4661 0.309 0.2179 0.5772 0.407 1.143 0.407 0.5672 0 0.8339-0.1891 1.144-0.407 0.315-0.2231 0.6721-0.4751 1.3541-0.4751 0.4989 0 0.8241 0.1352 1.0849 0.2951-0.245-0.3161-0.5179-0.6469-0.8071-0.9831" fill="#fff"/><path d="m93.112 53.39c-0.1789-0.1259-0.3458-0.2409-0.563-0.3158 0.256 2e-3 0.5159 0.0088 0.7781 0.019 0.3079 0.218 0.576 0.4048 1.1399 0.4048 0.411 0 0.665-0.0998 0.8912-0.239 0.1819 0.023 0.3628 0.0482 0.5448 0.076-0.0269 0.019-0.0539 0.036-0.0808 0.055-0.3152 0.2222-0.6721 0.4742-1.3552 0.4742-0.6829 0-1.0401-0.252-1.355-0.4742" fill="#fff"/><path d="m91.849 59.406c-0.066 0.061-0.1499 0.133-0.3121 0.252-0.3679 0.271-0.5989 0.472-0.9677 0.2651-0.0601-0.0329-0.1151-0.076-0.1672-0.1211-0.182-0.1599-0.76-0.6658-1.7309-1.5009-0.3991-0.3439-0.7449-0.6769-1.387-0.9131-0.847-0.3109 0.633 1.1591 0.0661 1.4182-0.2041-0.0051-0.3541-0.21-0.4502-0.3121-0.892-0.964-1.0119-0.2959-1.6829-0.5709-0.0479-0.3022 0.4669-0.587-0.341-0.415-0.169 0.034-0.4141-0.053-0.646-0.14 0.0269-0.2421 0.0669-0.4411 0.119-0.5842 0.243-0.656 1.1248-1.8819 2.2289-3.1499 0.0819-0.0181 0.2891-0.0609 0.6001-0.1159-0.1981 0.218-0.3869 0.4348-0.572 0.6508 0.1349-0.0218 0.2829-0.034 0.4541-0.03h8e-4v0.3452c-0.0198 0-0.0391-0.0011-0.0589-0.0011-0.339 0-0.5701 0.0641-0.7679 0.159v-0.0269c-0.6812 0.832-1.2201 1.5979-1.4633 2.1209 0.3623-0.0539 0.5811-0.2061 0.8252-0.3779 0.32-0.2251 0.682-0.481 1.3759-0.481 0.6951 0 1.0571 0.2559 1.376 0.481 0.305 0.2149 0.568 0.4008 1.1219 0.4008 0.555 0 0.8181-0.1859 1.1223-0.4008 0.2999-0.212 0.6417-0.447 1.2568-0.4751z" fill="#fff"/><path d="m90.574 53.124c0.239-0.0142 0.4839-0.0261 0.737-0.0352-0.1669 0.0692-0.307 0.1602-0.4561 0.2591-0.0878 0.059-0.18 0.1191-0.2809 0.1761z" fill="#fff"/><path d="m88.523 53.315v0.261c-0.1321-0.0669-0.2461-0.1411-0.3549-0.214 0.1128-0.015 0.2318-0.0309 0.3549-0.047" fill="#fff"/></g></g></svg>
